<svg width="180" height="180" viewBox="0 0 180 180" fill="none" xmlns="http://www.w3.org/2000/svg">
<path d="M81.5672 3.83863C86.0242 -1.27954 93.9758 -1.27954 98.4328 3.83863L99.8441 5.45933C103.187 9.298 108.7 10.3947 113.258 8.12744L115.182 7.17019C121.258 4.14721 128.604 7.19018 130.763 13.6244L131.447 15.6618C133.066 20.4874 137.74 23.6106 142.818 23.2599L144.962 23.1118C151.733 22.6443 157.356 28.267 156.888 35.0376L156.74 37.1815C156.389 42.2596 159.513 46.9336 164.338 48.5529L166.376 49.2366C172.81 51.3956 175.853 58.742 172.83 64.8183L171.873 66.7424C169.605 71.2997 170.702 76.8132 174.541 80.1559L176.161 81.5672C181.28 86.0242 181.28 93.9758 176.161 98.4328L174.541 99.8441C170.702 103.187 169.605 108.7 171.873 113.258L172.83 115.182C175.853 121.258 172.81 128.604 166.376 130.763L164.338 131.447C159.513 133.066 156.389 137.74 156.74 142.818L156.888 144.962C157.356 151.733 151.733 157.356 144.962 156.888L142.818 156.74C137.74 156.389 133.066 159.513 131.447 164.338L130.763 166.376C128.604 172.81 121.258 175.853 115.182 172.83L113.258 171.873C108.7 169.605 103.187 170.702 99.8441 174.541L98.4328 176.161C93.9758 181.28 86.0242 181.28 81.5672 176.161L80.1559 174.541C76.8132 170.702 71.2997 169.605 66.7424 171.873L64.8183 172.83C58.742 175.853 51.3956 172.81 49.2366 166.376L48.5529 164.338C46.9336 159.513 42.2596 156.389 37.1815 156.74L35.0376 156.888C28.267 157.356 22.6443 151.733 23.1118 144.962L23.2599 142.818C23.6106 137.74 20.4875 133.066 15.6618 131.447L13.6244 130.763C7.19018 128.604 4.14721 121.258 7.17019 115.182L8.12744 113.258C10.3947 108.7 9.298 103.187 5.45933 99.8441L3.83863 98.4328C-1.27954 93.9758 -1.27954 86.0242 3.83863 81.5672L5.45933 80.1559C9.298 76.8132 10.3947 71.2997 8.12744 66.7424L7.17019 64.8183C4.14721 58.742 7.19018 51.3956 13.6244 49.2366L15.6618 48.5529C20.4874 46.9336 23.6106 42.2596 23.2599 37.1815L23.1118 35.0376C22.6443 28.267 28.267 22.6443 35.0376 23.1118L37.1815 23.2599C42.2596 23.6106 46.9336 20.4875 48.5529 15.6618L49.2366 13.6244C51.3956 7.19018 58.742 4.14721 64.8183 7.17019L66.7424 8.12744C71.2997 10.3947 76.8132 9.298 80.1559 5.45933L81.5672 3.83863Z" fill="#EC95B1"/>
<path fill-rule="evenodd" clip-rule="evenodd" d="M98.587 13.9587C94.0485 8.74685 85.9514 8.74685 81.4129 13.9587C78.278 17.5586 73.1075 18.5871 68.8336 16.4608C62.6462 13.3825 55.1654 16.4812 52.9669 23.0331C51.4483 27.5586 47.0649 30.4875 42.3027 30.1586C35.4082 29.6825 29.6826 35.4081 30.1588 42.3026C30.4876 47.0648 27.5587 51.4481 23.0332 52.9667C16.4813 55.1653 13.3827 62.646 16.461 68.8335C18.5872 73.1074 17.5587 78.2779 13.9588 81.4128C8.74697 85.9512 8.74697 94.0484 13.9588 98.5869C17.5587 101.722 18.5872 106.892 16.461 111.166C13.3827 117.354 16.4813 124.834 23.0332 127.033C27.5587 128.551 30.4876 132.935 30.1588 137.697C29.6826 144.592 35.4082 150.317 42.3027 149.841C47.0649 149.512 51.4483 152.441 52.9669 156.967C55.1654 163.518 62.6462 166.617 68.8336 163.539C73.1075 161.413 78.278 162.441 81.4129 166.041C85.9514 171.253 94.0485 171.253 98.587 166.041C101.722 162.441 106.892 161.413 111.166 163.539C117.354 166.617 124.834 163.518 127.033 156.967C128.552 152.441 132.935 149.512 137.697 149.841C144.592 150.317 150.317 144.592 149.841 137.697C149.512 132.935 152.441 128.551 156.967 127.033C163.519 124.834 166.617 117.354 163.539 111.166C161.413 106.892 162.441 101.722 166.041 98.5869C171.253 94.0484 171.253 85.9512 166.041 81.4128C162.441 78.2779 161.413 73.1074 163.539 68.8335C166.617 62.646 163.519 55.1653 156.967 52.9667C152.441 51.4481 149.512 47.0648 149.841 42.3026C150.317 35.4081 144.592 29.6825 137.697 30.1586C132.935 30.4875 128.552 27.5586 127.033 23.0331C124.834 16.4812 117.354 13.3825 111.166 16.4608C106.892 18.5871 101.722 17.5586 98.587 13.9587ZM83.7661 16.0078C87.0608 12.2243 92.939 12.2243 96.2338 16.0078C100.301 20.679 107.011 22.0135 112.556 19.2546C117.048 17.0199 122.479 19.2693 124.075 24.0257C126.045 29.8979 131.733 33.6983 137.912 33.2716C142.917 32.926 147.074 37.0825 146.728 42.0876C146.301 48.2668 150.102 53.9545 155.974 55.925C160.73 57.521 162.98 62.9518 160.745 67.4436C157.986 72.9892 159.321 79.6983 163.992 83.766C167.775 87.0607 167.775 92.9389 163.992 96.2337C159.321 100.301 157.986 107.01 160.745 112.556C162.98 117.048 160.73 122.479 155.974 124.075C150.102 126.045 146.301 131.733 146.728 137.912C147.074 142.917 142.917 147.074 137.912 146.728C131.733 146.301 126.045 150.102 124.075 155.974C122.479 160.73 117.048 162.98 112.556 160.745C107.011 157.986 100.301 159.321 96.2338 163.992C92.939 167.775 87.0608 167.775 83.7661 163.992C79.6984 159.321 72.9893 157.986 67.4438 160.745C62.9519 162.98 57.5212 160.73 55.9251 155.974C53.9547 150.102 48.267 146.301 42.0877 146.728C37.0826 147.074 32.9261 142.917 33.2717 137.912C33.6984 131.733 29.898 126.045 24.0259 124.075C19.2695 122.479 17.02 117.048 19.2547 112.556C22.0136 107.01 20.6791 100.301 16.008 96.2337C12.2244 92.9389 12.2244 87.0607 16.008 83.766C20.6791 79.6983 22.0136 72.9892 19.2547 67.4436C17.02 62.9518 19.2695 57.521 24.0259 55.925C29.898 53.9545 33.6984 48.2668 33.2717 42.0876C32.9261 37.0825 37.0826 32.926 42.0877 33.2716C48.267 33.6983 53.9547 29.8979 55.9251 24.0257C57.5212 19.2693 62.9519 17.0199 67.4438 19.2546C72.9893 22.0135 79.6984 20.679 83.7661 16.0078Z" fill="#1B1F21"/>
<path d="M103.584 81.35L99.8783 77.6448L90.6147 86.9084L81.3511 77.6448L77.6459 81.35L86.9095 90.6136L77.6459 99.8773L81.3511 103.582L90.6147 94.3188L99.8783 103.582L103.584 99.8773L94.3199 90.6136L103.584 81.35Z" fill="#1B1F21"/>
<path d="M112.23 91.3341C112.23 92.5278 111.262 93.4956 110.068 93.4956C108.874 93.4956 107.907 92.5278 107.907 91.3341C107.907 90.1404 108.874 89.1726 110.068 89.1726C111.262 89.1726 112.23 90.1404 112.23 91.3341Z" fill="#1B1F21"/>
<path d="M73.3229 91.3341C73.3229 92.5278 72.3552 93.4956 71.1615 93.4956C69.9677 93.4956 69 92.5278 69 91.3341C69 90.1404 69.9677 89.1726 71.1615 89.1726C72.3552 89.1726 73.3229 90.1404 73.3229 91.3341Z" fill="#1B1F21"/>
<path d="M93.4969 71.1615C93.4969 72.3552 92.5292 73.3229 91.3355 73.3229C90.1417 73.3229 89.174 72.3552 89.174 71.1615C89.174 69.9677 90.1417 69 91.3355 69C92.5292 69 93.4969 69.9677 93.4969 71.1615Z" fill="#1B1F21"/>
<path d="M93.4969 110.067C93.4969 111.261 92.5292 112.228 91.3355 112.228C90.1417 112.228 89.174 111.261 89.174 110.067C89.174 108.873 90.1417 107.905 91.3355 107.905C92.5292 107.905 93.4969 108.873 93.4969 110.067Z" fill="#1B1F21"/>
<path d="M136.35 90.8706L135.569 95.7965C134.845 100.358 137.595 103.915 141.978 104.615C146.301 105.305 149.995 102.778 150.719 98.2166L151.5 93.2906L136.35 90.8706ZM148.153 97.8068C147.703 100.645 145.407 102.19 142.418 101.713C139.408 101.232 137.684 99.0443 138.134 96.2063L138.472 94.0778L148.491 95.6783L148.153 97.8068Z" fill="#1B1F21"/>
<path d="M133.154 105.595L132.083 108.216L146.278 114.054L147.349 111.433L133.154 105.595Z" fill="#1B1F21"/>
<path d="M134.774 126.092C137.293 126.964 139.585 126.106 141.266 123.58C143.015 120.951 142.864 117.814 140.686 116.355C137.88 114.474 135.813 116.471 134.042 118.172C132.748 119.452 131.641 120.562 130.433 119.753C129.191 118.921 129.357 117.526 130.243 116.194C131.219 114.726 132.547 114.135 134.368 114.836L135.306 111.985C132.555 111.055 130.086 111.919 128.178 114.787C126.282 117.638 126.49 120.615 128.905 122.234C131.627 124.057 133.779 122.191 135.521 120.496C136.861 119.222 137.991 118.078 139.164 118.864C140.151 119.526 140.173 120.75 139.219 122.184C138.344 123.498 137.056 123.844 135.729 123.326L134.774 126.092Z" fill="#1B1F21"/>
<path d="M124.267 120.46L116.461 127.28L118.127 129.199L123.804 124.239L126.557 127.413L122.747 130.742L124.412 132.662L128.223 129.333L130.546 132.011L125.023 136.836L126.689 138.756L134.34 132.071L124.267 120.46Z" fill="#1B1F21"/>
<path d="M103.704 133.269L107.304 131.694L117.551 139.301L117.626 139.268C117.477 138.96 117.325 138.646 117.171 138.325C117.022 138.017 116.871 137.702 116.716 137.382C116.555 137.079 116.397 136.767 116.243 136.447C116.094 136.139 115.943 135.824 115.788 135.504L113.04 129.182L115.571 128.074L121.411 141.508L117.83 143.075L107.643 135.554L107.586 135.578C107.735 135.886 107.881 136.188 108.025 136.484C108.173 136.792 108.319 137.094 108.463 137.389C108.599 137.703 108.739 138.007 108.882 138.303C109.031 138.611 109.18 138.919 109.329 139.227L112.093 145.587L109.543 146.703L103.704 133.269ZM119.737 143.561C119.912 144.067 120.008 144.526 120.023 144.937C120.031 145.366 119.972 145.743 119.845 146.067C119.723 146.404 119.55 146.689 119.324 146.923C119.085 147.161 118.804 147.352 118.479 147.494C118.229 147.603 117.963 147.66 117.682 147.664C117.394 147.685 117.108 147.676 116.823 147.637C116.531 147.615 116.25 147.604 115.982 147.602C115.719 147.612 115.474 147.667 115.249 147.766C115.062 147.848 114.916 148.009 114.812 148.248C114.708 148.488 114.689 148.787 114.756 149.146L113.387 149.745C113.043 148.747 113.007 147.911 113.28 147.239C113.553 146.567 114.009 146.092 114.646 145.813C114.896 145.703 115.159 145.64 115.434 145.624C115.716 145.621 116.002 145.63 116.294 145.651C116.592 145.685 116.872 145.697 117.135 145.686C117.404 145.688 117.65 145.64 117.875 145.541C118.063 145.459 118.209 145.298 118.313 145.059C118.417 144.819 118.436 144.52 118.369 144.161L119.737 143.561Z" fill="#1B1F21"/>
<path d="M102.745 141.645C102.482 137.096 99.0833 133.942 94.55 134.206C90.0167 134.469 87.0036 137.996 87.2663 142.545C87.5301 147.115 90.9278 150.248 95.461 149.985C99.9943 149.721 103.009 146.215 102.745 141.645ZM90.1864 142.375C90.0018 139.178 91.8006 136.977 94.7002 136.808C97.5999 136.639 99.6401 138.618 99.8247 141.815C100.009 145.012 98.2104 147.213 95.3108 147.382C92.4111 147.551 90.3709 145.572 90.1864 142.375Z" fill="#1B1F21"/>
<path d="M78.146 140.311C77.9076 141.039 77.5993 141.586 77.2214 141.951C76.8305 142.312 76.3958 142.521 75.9174 142.579C75.4347 142.651 74.9408 142.603 74.4356 142.436C73.9303 142.27 73.511 142.016 73.1776 141.676C72.8269 141.344 72.6009 140.916 72.4995 140.393C72.3982 139.87 72.4667 139.244 72.7052 138.516C72.9394 137.801 73.252 137.263 73.6429 136.903C74.0338 136.542 74.4706 136.326 74.9533 136.254C75.423 136.179 75.9104 136.225 76.4157 136.391C76.9209 136.558 77.3467 136.814 77.6931 137.158C78.0395 137.503 78.2634 137.937 78.3647 138.46C78.4531 138.979 78.3802 139.596 78.146 140.311Z" fill="#1B1F21"/>
<path d="M68.9959 128.796L65.097 125.703C61.4869 122.838 57.0503 123.505 54.2974 126.999C51.5826 130.445 51.9722 134.914 55.5824 137.779L59.4813 140.873L68.9959 128.796ZM57.1935 135.734C54.9472 133.952 54.727 131.186 56.6045 128.803C58.4948 126.404 61.2395 125.965 63.4858 127.748L65.1706 129.084L58.8782 137.071L57.1935 135.734Z" fill="#1B1F21"/>
<path d="M57.7875 118.819L56.0288 116.604L44.0298 126.196L45.7885 128.411L57.7875 118.819Z" fill="#1B1F21"/>
<path d="M39.1743 110.309C37.1902 112.093 36.8232 114.52 38.2063 117.223C39.6456 120.035 42.4508 121.427 44.7797 120.226C47.7818 118.679 47.0473 115.896 46.4269 113.516C45.9413 111.759 45.5133 110.249 46.8051 109.583C48.1333 108.898 49.2674 109.721 49.9963 111.145C50.8001 112.716 50.6694 114.167 49.1736 115.423L51.201 117.632C53.3478 115.671 53.7955 113.087 52.2254 110.019C50.6647 106.97 47.9706 105.705 45.387 107.037C42.4759 108.538 43.055 111.331 43.6843 113.684C44.1428 115.478 44.5895 117.025 43.3341 117.672C42.2788 118.216 41.2023 117.64 40.4172 116.106C39.6976 114.7 40.022 113.402 41.1191 112.491L39.1743 110.309Z" fill="#1B1F21"/>
<path d="M49.1772 103.836L47.083 93.664L44.5991 94.1791L46.1222 101.577L42.0158 102.428L40.9935 97.4629L38.5096 97.9779L39.5319 102.943L36.0665 103.662L34.5848 96.4651L32.1009 96.9801L34.1538 106.951L49.1772 103.836Z" fill="#1B1F21"/>
<path d="M48.108 79.5191L47.715 83.4404L36.0885 88.6829L36.0803 88.7646C36.4208 88.7852 36.7682 88.8065 37.1223 88.8285C37.4629 88.8491 37.8102 88.8704 38.1643 88.8924C38.5063 88.8994 38.8543 88.9139 39.2084 88.9359C39.549 88.9565 39.8963 88.9778 40.2504 88.9998L47.0886 89.6901L46.8122 92.4473L32.2811 90.9805L32.6721 87.0796L44.1949 81.8473L44.201 81.786C43.8604 81.7654 43.5267 81.7455 43.1997 81.7262C42.8591 81.7056 42.5253 81.6857 42.1984 81.6664C41.8592 81.6322 41.5261 81.6054 41.1991 81.5862C40.8585 81.5656 40.518 81.5449 40.1774 81.5243L33.2985 80.83L33.5769 78.0524L48.108 79.5191ZM31.3158 88.5106C30.7908 88.4163 30.3458 88.2751 29.9809 88.087C29.6038 87.8839 29.3054 87.6475 29.0858 87.3778C28.8526 87.1066 28.6899 86.8152 28.5978 86.5033C28.5071 86.1778 28.4795 85.8381 28.515 85.484C28.5423 85.2117 28.6231 84.9517 28.7576 84.704C28.8799 84.4412 29.0279 84.1949 29.2017 83.9648C29.3633 83.7198 29.5107 83.4803 29.6438 83.2461C29.7633 83.0107 29.8354 82.7704 29.86 82.5253C29.8804 82.321 29.812 82.1147 29.6547 81.9063C29.4975 81.6979 29.2465 81.535 28.902 81.4177L29.0514 79.9268C30.0879 80.1139 30.8313 80.4915 31.2814 81.0596C31.7316 81.6277 31.9219 82.2589 31.8523 82.9533C31.825 83.2256 31.7509 83.4863 31.63 83.7355C31.4955 83.9832 31.3474 84.2296 31.1858 84.4746C31.0107 84.7182 30.8633 84.9578 30.7438 85.1933C30.6107 85.4274 30.5318 85.667 30.5073 85.9121C30.4868 86.1163 30.5552 86.3226 30.7125 86.5311C30.8697 86.7395 31.1207 86.9024 31.4652 87.0197L31.3158 88.5106Z" fill="#1B1F21"/>
<path d="M41.2707 74.5057C45.3476 76.5123 49.7551 75.0922 51.7547 71.0009C53.7542 66.9096 52.1749 62.5428 48.098 60.5362C44.0027 58.5206 39.6135 59.9497 37.614 64.041C35.6144 68.1323 37.1754 72.49 41.2707 74.5057ZM46.81 63.1716C49.6748 64.5817 50.7014 67.236 49.4224 69.853C48.1434 72.4699 45.4236 73.2803 42.5587 71.8703C39.6938 70.4602 38.6673 67.8059 39.9463 65.1889C41.2253 62.572 43.9451 61.7616 46.81 63.1716Z" fill="#1B1F21"/>
<path d="M54.287 53.8741C53.769 53.311 53.443 52.775 53.3089 52.266C53.1848 51.7478 53.2137 51.2648 53.3956 50.8169C53.5682 50.359 53.8499 49.9491 54.2407 49.5871C54.6315 49.2251 55.0562 48.9806 55.5148 48.8538C55.9741 48.7076 56.4563 48.7173 56.9611 48.8828C57.466 49.0483 57.9774 49.4126 58.4953 49.9757C59.004 50.5287 59.3205 51.0644 59.4445 51.5826C59.5686 52.1009 59.5444 52.5889 59.3717 53.0468C59.2091 53.4955 58.9324 53.9008 58.5416 54.2628C58.1508 54.6248 57.7211 54.8738 57.2525 55.01C56.7839 55.1461 56.2972 55.1314 55.7923 54.9659C55.2975 54.7911 54.7957 54.4272 54.287 53.8741Z" fill="#1B1F21"/>
<path d="M68.7743 51.3668L73.3664 49.4581C77.6184 47.6907 79.2007 43.4782 77.5022 39.363C75.8272 35.3046 71.7481 33.4675 67.4961 35.2348L62.904 37.1435L68.7743 51.3668ZM68.4902 37.6433C71.1358 36.5436 73.6493 37.6985 74.8077 40.5052C75.9739 43.3309 75.018 45.9499 72.3724 47.0496L70.3881 47.8743L66.5059 38.468L68.4902 37.6433Z" fill="#1B1F21"/>
<path d="M82.9661 46.3754L85.752 45.9194L83.2824 30.7252L80.4965 31.1812L82.9661 46.3754Z" fill="#1B1F21"/>
<path d="M99.5486 34.2463C98.9735 31.6358 97.0462 30.1231 94.0212 30.0059C90.8735 29.884 88.2877 31.6531 88.1867 34.2785C88.0565 37.6629 90.833 38.3868 93.2038 39.0127C94.9678 39.4508 96.4889 39.8179 96.4329 41.2742C96.3753 42.7715 95.104 43.3591 93.5098 43.2973C91.752 43.2292 90.5556 42.4022 90.1998 40.478L87.2871 41.1663C87.9352 44.0057 89.9593 45.6658 93.393 45.7989C96.8064 45.9311 99.2271 44.1967 99.3392 41.2841C99.4655 38.0023 96.7558 37.1372 94.4046 36.5326C92.6217 36.0527 91.0598 35.684 91.1142 34.2687C91.16 33.0791 92.1884 32.4205 93.9052 32.487C95.4791 32.548 96.4466 33.4688 96.6996 34.8754L99.5486 34.2463Z" fill="#1B1F21"/>
<path d="M100.289 46.1303L110.158 49.2618L110.922 46.835L103.745 44.5575L105.01 40.5453L109.827 42.074L110.591 39.6471L105.774 38.1185L106.841 34.7326L113.823 36.9482L114.588 34.5214L104.915 31.4517L100.289 46.1303Z" fill="#1B1F21"/>
<path d="M121.8 56.9531L118.582 54.6934L119.704 41.9517L119.637 41.9046C119.452 42.1928 119.264 42.4865 119.072 42.7859C118.888 43.074 118.7 43.3677 118.508 43.6671C118.334 43.9631 118.152 44.2607 117.96 44.5601C117.775 44.8482 117.587 45.142 117.395 45.4413L113.454 51.0919L111.192 49.5031L119.566 37.4955L122.767 39.7434L121.687 52.3892L121.738 52.4246C121.922 52.1364 122.102 51.8539 122.279 51.577C122.463 51.2888 122.643 51.0063 122.82 50.7294C123.015 50.4491 123.201 50.1705 123.378 49.8936C123.562 49.6054 123.746 49.3173 123.931 49.0292L127.895 43.3449L130.174 44.9455L121.8 56.9531ZM122.185 37.8567C122.523 37.443 122.864 37.1224 123.205 36.8948C123.566 36.6638 123.918 36.518 124.259 36.4574C124.609 36.3856 124.942 36.3856 125.258 36.4573C125.585 36.5369 125.894 36.6787 126.185 36.8827C126.408 37.0396 126.595 37.2374 126.745 37.4762C126.913 37.7116 127.055 37.9616 127.17 38.2262C127.304 38.4874 127.441 38.7334 127.579 38.9643C127.726 39.1841 127.899 39.3645 128.1 39.5058C128.268 39.6235 128.481 39.6644 128.739 39.6285C128.997 39.5926 129.261 39.4524 129.531 39.208L130.755 40.0671C130.086 40.8834 129.394 41.3498 128.68 41.4665C127.967 41.5831 127.325 41.4414 126.755 41.0412C126.532 40.8843 126.341 40.692 126.184 40.4645C126.034 40.2257 125.892 39.9757 125.758 39.7145C125.632 39.4421 125.495 39.1961 125.349 38.9764C125.21 38.7454 125.041 38.5594 124.839 38.4181C124.672 38.3004 124.459 38.2595 124.201 38.2954C123.943 38.3313 123.679 38.4715 123.408 38.7159L122.185 37.8567Z" fill="#1B1F21"/>
<path d="M129.638 53.5271C125.909 56.1263 125.002 60.6817 127.592 64.4247C130.182 68.1677 134.752 68.9064 138.482 66.3072C142.228 63.6964 143.118 59.1526 140.528 55.4097C137.938 51.6667 133.385 50.9163 129.638 53.5271ZM136.813 63.8962C134.192 65.7226 131.382 65.332 129.725 62.9378C128.069 60.5437 128.686 57.7646 131.307 55.9382C133.928 54.1117 136.738 54.5024 138.395 56.8966C140.051 59.2907 139.434 62.0698 136.813 63.8962Z" fill="#1B1F21"/>
<path d="M141.291 75.0705C142.034 74.8926 142.66 74.8695 143.168 75.0011C143.679 75.146 144.084 75.4076 144.385 75.7859C144.698 76.161 144.917 76.6081 145.04 77.1273C145.163 77.6464 145.168 78.1377 145.054 78.6011C144.956 79.0747 144.712 79.4919 144.321 79.8528C143.93 80.2137 143.364 80.4831 142.621 80.661C141.891 80.8357 141.271 80.8506 140.76 80.7056C140.249 80.5607 139.836 80.3007 139.523 79.9256C139.213 79.5638 138.996 79.1233 138.872 78.6042C138.749 78.0851 138.743 77.5871 138.854 77.1104C138.964 76.6336 139.215 76.2148 139.606 75.8539C140 75.5063 140.562 75.2452 141.291 75.0705Z" fill="#1B1F21"/>
</svg>
