<svg width="272" height="207" viewBox="0 0 272 207" fill="none" xmlns="http://www.w3.org/2000/svg">
<path d="M99.6235 41.884C109.368 32.2751 123.438 28.5049 136.682 31.9542L151.268 35.7531C157.784 37.4503 164.627 37.4253 171.126 35.6804L197.425 28.6207C208.538 25.6374 219.968 32.262 222.937 43.4069L223.038 43.7863C224.915 50.8299 230.434 56.317 237.478 58.141C252.657 62.0715 257.755 81.098 246.575 92.0911C241.387 97.1929 239.35 104.705 241.247 111.743L241.349 112.122C244.35 123.258 237.764 134.71 226.648 137.683L200.343 144.719C193.842 146.457 187.903 149.857 183.109 154.585L172.376 165.168C162.632 174.777 148.562 178.547 135.318 175.098L120.732 171.299C114.216 169.601 107.373 169.627 100.874 171.371L74.5754 178.431C63.4621 181.414 52.0319 174.79 49.0629 163.645L48.9618 163.265C47.0853 156.222 41.5657 150.735 34.5216 148.911C19.3432 144.98 14.2451 125.954 25.4247 114.961C30.613 109.859 32.6497 102.347 30.7529 95.309L30.6507 94.9299C27.6495 83.7936 34.2361 72.3414 45.3521 69.3684L71.6569 62.3331C78.1584 60.5943 84.0966 57.1948 88.8914 52.4668L99.6235 41.884Z" fill="#FFAD20"/>
<path fill-rule="evenodd" clip-rule="evenodd" d="M80.1648 67.042C79.4817 67.2883 78.7904 67.5153 78.0918 67.7226C77.7633 67.8201 77.4331 67.9132 77.1014 68.002L72.2091 69.3106C72.8318 71.6387 75.224 73.0212 77.5521 72.3985L78.229 72.2174C78.5988 72.1185 78.9669 72.0146 79.3333 71.9059C81.6437 71.2203 82.9608 68.7915 82.2752 66.4812C82.2512 66.4003 82.2251 66.3207 82.1969 66.2424C81.5283 66.528 80.8506 66.7947 80.1648 67.042ZM88.9468 62.4986C88.9999 62.5657 89.0552 62.6316 89.1128 62.6962C90.7157 64.4959 93.474 64.6554 95.2736 63.0525C95.5601 62.7973 95.8432 62.538 96.1227 62.2747L96.6802 61.7493C98.4341 60.0966 98.5162 57.3349 96.8634 55.5809L93.1301 59.0988C92.8804 59.3342 92.6274 59.5659 92.3714 59.794C91.828 60.2779 91.2705 60.7455 90.6998 61.1962C90.1284 61.6474 89.5438 62.0817 88.9468 62.4986ZM99.4317 53.1609C101.084 54.9149 103.846 54.9969 105.6 53.3442L106.158 52.8188C106.304 52.6805 106.452 52.5437 106.601 52.4084C108.322 50.8469 108.508 48.2259 107.067 46.4406C106.476 46.8621 105.895 47.3018 105.327 47.7594C104.762 48.2144 104.209 48.6872 103.669 49.1773C103.499 49.3309 103.332 49.4861 103.165 49.643L99.4317 53.1609ZM108.925 45.2C110.025 47.215 112.521 48.044 114.622 47.048C114.987 46.8749 115.356 46.7084 115.727 46.5486C117.863 45.6293 118.89 43.2069 118.103 41.0492C117.406 41.2581 116.714 41.4872 116.03 41.7361C115.347 41.9845 114.67 42.2527 114.002 42.5404C113.582 42.721 113.166 42.9092 112.753 43.105C112.096 43.4164 111.448 43.7469 110.809 44.0964C110.171 44.4454 109.543 44.8134 108.925 45.2ZM120.261 40.471C120.658 42.733 122.759 44.3176 125.068 44.0456C125.47 43.9983 125.872 43.9584 126.275 43.9257C128.592 43.7378 130.339 41.7718 130.285 39.4765C129.556 39.4508 128.828 39.4463 128.101 39.463C127.373 39.4797 126.646 39.5176 125.922 39.5763C125.466 39.6133 125.012 39.6585 124.558 39.7119C123.835 39.797 123.115 39.9029 122.399 40.0294C121.682 40.1561 120.969 40.3033 120.261 40.471ZM132.514 39.6223C132.159 41.8885 133.63 44.0654 135.901 44.5576C136.098 44.6002 136.294 44.6447 136.491 44.6911L137.236 44.8673C139.581 45.4217 141.932 43.9698 142.486 41.6244L137.494 40.4445C137.272 40.3919 137.049 40.3413 136.825 40.293C136.113 40.1385 135.397 40.0056 134.68 39.8941C133.959 39.782 133.237 39.6915 132.514 39.6223ZM145.921 42.4361C145.366 44.7815 146.818 47.1321 149.164 47.6865L149.909 47.8627C150.283 47.951 150.657 48.034 151.033 48.1118C153.393 48.6001 155.702 47.0828 156.19 44.7228C156.208 44.638 156.223 44.5533 156.235 44.4687C155.51 44.4061 154.787 44.3223 154.066 44.2173C153.347 44.1123 152.63 43.9861 151.917 43.8387C151.582 43.7692 151.247 43.695 150.913 43.616L145.921 42.4361ZM163.953 44.3359C163.968 44.4178 163.985 44.4998 164.005 44.5818C164.566 46.9255 166.921 48.3703 169.265 47.8089C169.636 47.7199 170.007 47.6257 170.377 47.5265L171.053 47.3448C173.381 46.7201 174.761 44.3267 174.137 41.9991L169.246 43.312C168.914 43.401 168.581 43.4855 168.248 43.5653C167.54 43.735 166.827 43.8841 166.113 44.0123C165.395 44.1411 164.675 44.249 163.953 44.3359ZM176.535 41.3553C177.16 43.6829 179.553 45.0633 181.881 44.4385L183.234 44.0752C185.562 43.4505 186.942 41.0571 186.318 38.7296L176.535 41.3553ZM188.716 38.0857C189.341 40.4133 191.734 41.7937 194.062 41.1689L194.738 40.9873C194.948 40.931 195.158 40.8791 195.368 40.8317C197.564 40.3351 198.995 38.2632 198.74 36.0761C198.017 36.0804 197.288 36.1241 196.556 36.2087C195.841 36.2914 195.123 36.4132 194.405 36.5756C194.139 36.6357 193.873 36.7015 193.607 36.7729L188.716 38.0857ZM203.1 36.5358C202.389 38.6085 203.334 40.929 205.361 41.8897C205.744 42.0711 206.117 42.2681 206.479 42.4801C208.41 43.6092 210.851 43.0873 212.165 41.3432C211.638 40.8369 211.082 40.3627 210.498 39.9226C209.918 39.4852 209.312 39.0815 208.682 38.7133C208.21 38.4375 207.726 38.1817 207.23 37.9466C206.575 37.6361 205.9 37.3619 205.209 37.1257C204.521 36.8908 203.817 36.6936 203.1 36.5358ZM214.923 44.7427C212.952 45.6482 211.918 47.902 212.59 50.0237C212.652 50.2192 212.709 50.4174 212.763 50.6181L212.768 50.6366C212.781 50.6862 212.795 50.7353 212.81 50.784C212.821 50.8336 212.834 50.8832 212.847 50.9327L212.852 50.9512C212.966 51.3818 213.094 51.8071 213.235 52.2267C213.999 54.5121 216.472 55.7447 218.757 54.9798C218.939 54.9192 219.113 54.8478 219.281 54.7666C219.028 54.3815 218.79 53.9857 218.568 53.5802C218.439 53.344 218.315 53.1045 218.197 52.8618C217.996 52.448 217.812 52.025 217.644 51.5934C217.548 51.3457 217.457 51.0951 217.373 50.8418C217.261 50.5085 217.159 50.1705 217.068 49.8282L216.98 49.4951C216.909 49.2291 216.832 48.9661 216.75 48.7062C216.645 48.3752 216.531 48.0493 216.408 47.7286C216.271 47.3695 216.122 47.0169 215.963 46.6711C215.817 46.3537 215.662 46.042 215.498 45.7362C215.317 45.3977 215.125 45.0664 214.923 44.7427ZM225.19 60.3161C225.123 60.4719 225.065 60.6331 225.016 60.7995C224.335 63.1111 225.656 65.5375 227.968 66.2189C228.383 66.3412 228.803 66.4523 229.227 66.5521C229.409 66.5948 229.588 66.6403 229.765 66.6884C231.927 67.2779 234.153 66.1337 234.964 64.1007C234.333 63.7567 233.672 63.4452 232.982 63.1697C232.319 62.9052 231.629 62.6738 230.912 62.4785C230.686 62.4167 230.457 62.3585 230.225 62.3041C229.88 62.223 229.538 62.1326 229.202 62.0334C228.497 61.8256 227.812 61.5788 227.148 61.2953C226.472 61.0061 225.818 60.6788 225.19 60.3161ZM237.089 65.466C235.58 67.0181 235.425 69.487 236.81 71.2242C237.029 71.4989 237.236 71.7814 237.43 72.0711C238.667 73.9166 241.067 74.5154 243.003 73.5465C242.763 72.8574 242.478 72.183 242.151 71.5276C241.827 70.8787 241.461 70.2485 241.054 69.6415C240.794 69.2525 240.516 68.8731 240.222 68.5042C239.772 67.9392 239.283 67.3992 238.756 66.8883C238.237 66.3845 237.681 65.9091 237.089 65.466ZM243.657 75.9879C241.496 76.1167 239.717 77.8354 239.568 80.0521C239.545 80.4001 239.507 80.7481 239.455 81.0954C239.124 83.2924 240.493 85.3529 242.576 85.9426C242.867 85.2631 243.11 84.5734 243.308 83.8774C243.509 83.1717 243.662 82.4595 243.77 81.7449C243.84 81.2785 243.891 80.8112 243.922 80.3439C243.971 79.6148 243.973 78.886 243.929 78.1621C243.885 77.4309 243.794 76.7047 243.657 75.9879ZM241.418 88.1877C239.699 86.8327 237.199 86.9547 235.622 88.5462C235.493 88.6762 235.36 88.8053 235.224 88.9332C234.906 89.2318 234.598 89.538 234.3 89.8513C232.639 91.5972 232.708 94.3593 234.454 96.0205C234.579 96.14 234.71 96.2507 234.846 96.3523C235.208 95.7241 235.611 95.1138 236.052 94.5249C236.485 93.9478 236.955 93.3914 237.461 92.8592C237.703 92.6048 237.954 92.356 238.212 92.1131C238.386 91.95 238.555 91.7851 238.72 91.6183C239.243 91.0909 239.725 90.5455 240.167 89.9849C240.627 89.4011 241.044 88.8009 241.418 88.1877ZM232.503 104.113C232.317 104.126 232.131 104.152 231.943 104.19C229.582 104.67 228.056 106.974 228.537 109.336C228.625 109.769 228.727 110.201 228.843 110.632L228.848 110.65C228.861 110.7 228.875 110.749 228.89 110.797C228.902 110.847 228.914 110.896 228.928 110.946L228.933 110.964C228.987 111.165 229.036 111.366 229.08 111.566C229.559 113.739 231.581 115.174 233.741 114.973C233.754 114.591 233.755 114.209 233.742 113.825C233.731 113.478 233.71 113.131 233.677 112.783C233.642 112.404 233.595 112.024 233.534 111.644C233.48 111.305 233.416 110.966 233.341 110.627C233.283 110.361 233.218 110.094 233.146 109.829L233.056 109.496C232.964 109.154 232.883 108.81 232.813 108.466C232.76 108.204 232.713 107.942 232.672 107.679C232.602 107.222 232.55 106.763 232.517 106.304C232.498 106.035 232.485 105.766 232.479 105.497C232.468 105.035 232.476 104.573 232.503 104.113ZM233.052 119.296C231.042 118.442 228.667 119.211 227.56 121.154C227.352 121.519 227.127 121.876 226.887 122.224C225.612 124.07 225.954 126.552 227.606 127.991C228.148 127.496 228.659 126.974 229.137 126.426C229.617 125.876 230.065 125.301 230.477 124.705C230.789 124.253 231.08 123.789 231.351 123.315C231.712 122.681 232.035 122.028 232.319 121.359C232.604 120.686 232.849 119.997 233.052 119.296ZM224.06 130.569C223.187 128.548 220.911 127.469 218.761 128.137C218.556 128.201 218.348 128.261 218.138 128.317L217.462 128.498C215.133 129.121 213.751 131.513 214.374 133.841L219.266 132.533C219.532 132.461 219.795 132.385 220.056 132.304C220.759 132.086 221.441 131.833 222.102 131.547C222.778 131.254 223.431 130.927 224.06 130.569ZM211.975 134.483C211.352 132.155 208.96 130.772 206.632 131.395L205.278 131.757C202.95 132.38 201.567 134.772 202.19 137.1L211.975 134.483ZM199.791 137.742C199.168 135.414 196.776 134.031 194.448 134.654L193.771 134.835C193.401 134.934 193.033 135.038 192.667 135.146C190.356 135.832 189.039 138.261 189.725 140.571C189.749 140.652 189.775 140.732 189.803 140.81C190.472 140.524 191.149 140.258 191.835 140.01C192.518 139.764 193.21 139.537 193.908 139.33C194.237 139.232 194.567 139.139 194.899 139.05L199.791 137.742ZM183.053 144.554C183 144.487 182.945 144.421 182.887 144.356C181.284 142.556 178.526 142.397 176.726 144C176.44 144.255 176.157 144.514 175.877 144.778L175.32 145.303C173.566 146.956 173.484 149.717 175.137 151.471L178.87 147.954C179.12 147.718 179.373 147.486 179.629 147.258C180.172 146.774 180.729 146.307 181.3 145.856C181.872 145.405 182.456 144.971 183.053 144.554ZM172.568 153.891C170.916 152.138 168.154 152.055 166.4 153.708L165.842 154.234C165.696 154.372 165.548 154.509 165.399 154.644C163.678 156.205 163.492 158.826 164.932 160.612C165.524 160.19 166.105 159.751 166.673 159.293C167.238 158.838 167.791 158.365 168.331 157.875C168.501 157.722 168.668 157.566 168.835 157.409L172.568 153.891ZM163.075 161.852C161.975 159.837 159.479 159.008 157.378 160.004C157.013 160.177 156.644 160.344 156.273 160.504C154.137 161.423 153.11 163.845 153.897 166.003C154.594 165.794 155.286 165.565 155.97 165.316C156.653 165.068 157.33 164.8 157.998 164.512C158.418 164.331 158.834 164.143 159.247 163.947C159.904 163.636 160.552 163.305 161.191 162.956C161.829 162.607 162.457 162.239 163.075 161.852ZM151.739 166.581C151.342 164.319 149.241 162.735 146.932 163.007C146.53 163.054 146.128 163.094 145.725 163.127C143.408 163.315 141.661 165.281 141.715 167.576C142.444 167.602 143.172 167.606 143.899 167.589C144.627 167.573 145.353 167.535 146.078 167.476C146.534 167.439 146.988 167.394 147.442 167.34C148.165 167.255 148.885 167.149 149.601 167.023C150.318 166.896 151.031 166.749 151.739 166.581ZM139.486 167.43C139.841 165.164 138.37 162.987 136.099 162.495C135.902 162.452 135.706 162.408 135.509 162.361L134.764 162.185C132.419 161.631 130.068 163.083 129.514 165.428L134.506 166.608C134.728 166.66 134.951 166.711 135.175 166.759C135.887 166.914 136.603 167.047 137.32 167.158C138.041 167.27 138.763 167.361 139.486 167.43ZM126.079 164.616C126.634 162.271 125.182 159.92 122.836 159.366L122.091 159.19C121.717 159.101 121.342 159.018 120.967 158.941C118.607 158.452 116.298 159.97 115.809 162.33C115.792 162.414 115.777 162.499 115.765 162.584C116.49 162.646 117.213 162.73 117.934 162.835C118.653 162.94 119.37 163.066 120.083 163.214C120.418 163.283 120.753 163.357 121.087 163.436L126.079 164.616ZM108.047 162.716C108.032 162.634 108.015 162.552 107.995 162.47C107.434 160.127 105.079 158.682 102.735 159.243C102.364 159.332 101.993 159.427 101.623 159.526L100.946 159.708C98.6189 160.332 97.2385 162.726 97.8633 165.053L102.754 163.74C103.086 163.651 103.419 163.567 103.752 163.487C104.46 163.317 105.173 163.168 105.887 163.04C106.605 162.911 107.325 162.803 108.047 162.716ZM95.4648 165.697C94.84 163.369 92.4466 161.989 90.1191 162.614L88.7656 162.977C86.4381 163.602 85.0576 165.995 85.6824 168.323L95.4648 165.697ZM83.2839 168.967C82.6591 166.639 80.2658 165.259 77.9382 165.883L77.2615 166.065C77.0515 166.121 76.8418 166.173 76.6322 166.221C74.4362 166.717 73.0048 168.789 73.2595 170.976C73.9827 170.972 74.7118 170.928 75.444 170.844C76.1589 170.761 76.8768 170.639 77.5948 170.477C77.8608 170.417 78.1268 170.351 78.3927 170.279L83.2839 168.967ZM68.8996 170.516C69.6105 168.444 68.6657 166.123 66.6389 165.163C66.2563 164.981 65.8832 164.784 65.5208 164.572C63.59 163.443 61.1489 163.965 59.8353 165.709C60.3616 166.215 60.9183 166.69 61.5018 167.13C62.0818 167.567 62.6883 167.971 63.3179 168.339C63.7895 168.615 64.2739 168.871 64.7699 169.106C65.4249 169.416 66.0999 169.69 66.7914 169.927C67.4789 170.162 68.1827 170.359 68.8996 170.516ZM57.0767 162.31C59.0482 161.404 60.0821 159.15 59.4102 157.029C59.3482 156.833 59.2905 156.635 59.237 156.434L59.2321 156.416C59.2189 156.366 59.2049 156.317 59.1901 156.268C59.1787 156.219 59.1664 156.169 59.1532 156.12L59.1483 156.101C59.0336 155.671 58.9059 155.245 58.7655 154.826C58.0006 152.54 55.5279 151.308 53.2425 152.073C53.0613 152.133 52.8867 152.205 52.7191 152.286C52.9724 152.671 53.2102 153.067 53.4318 153.472C53.5609 153.708 53.6845 153.948 53.8025 154.191C54.0036 154.604 54.1883 155.027 54.3559 155.459C54.4521 155.707 54.5427 155.957 54.6274 156.211C54.739 156.544 54.8405 156.882 54.9316 157.224L55.0204 157.557C55.0912 157.823 55.1679 158.086 55.2502 158.346C55.355 158.677 55.469 159.003 55.5918 159.324C55.7293 159.683 55.8779 160.035 56.0371 160.381C56.1833 160.699 56.3384 161.01 56.502 161.316C56.6832 161.655 56.875 161.986 57.0767 162.31ZM46.8103 146.736C46.8767 146.58 46.9348 146.419 46.9838 146.253C47.6653 143.941 46.3437 141.515 44.0321 140.833C43.6173 140.711 43.1975 140.6 42.773 140.5C42.5911 140.458 42.4119 140.412 42.2352 140.364C40.0731 139.774 37.8473 140.919 37.0362 142.952C37.6667 143.296 38.3276 143.607 39.018 143.883C39.6809 144.147 40.371 144.379 41.0875 144.574C41.3141 144.636 41.5433 144.694 41.7751 144.748C42.1204 144.829 42.4615 144.92 42.7983 145.019C43.5029 145.227 44.1882 145.474 44.8516 145.757C45.5283 146.046 46.1822 146.374 46.8103 146.736ZM34.9105 141.586C36.4196 140.034 36.5748 137.565 35.1899 135.828C34.971 135.553 34.7644 135.271 34.5702 134.981C33.3331 133.136 30.9329 132.537 28.9971 133.506C29.2372 134.195 29.5215 134.869 29.8486 135.525C30.1726 136.174 30.5386 136.804 30.9455 137.411C31.2062 137.8 31.4838 138.179 31.7778 138.548C32.2282 139.113 32.7172 139.653 33.2439 140.164C33.7633 140.668 34.3192 141.143 34.9105 141.586ZM28.3429 131.064C30.5039 130.936 32.2831 129.217 32.4317 127C32.455 126.652 32.4927 126.304 32.5449 125.957C32.8756 123.76 31.5068 121.699 29.4239 121.11C29.1333 121.789 28.8896 122.479 28.6917 123.175C28.491 123.881 28.3375 124.593 28.2299 125.307C28.1597 125.774 28.1091 126.241 28.0778 126.708C28.0289 127.438 28.027 128.166 28.0709 128.89C28.1153 129.621 28.2064 130.348 28.3429 131.064ZM30.5821 118.865C32.301 120.22 34.8007 120.098 36.3785 118.506C36.5074 118.376 36.6399 118.247 36.776 118.119C37.0937 117.821 37.4017 117.514 37.6999 117.201C39.3611 115.455 39.2924 112.693 37.5464 111.032C37.4208 110.912 37.2898 110.802 37.1544 110.7C36.7918 111.328 36.3892 111.939 35.9477 112.527C35.515 113.105 35.0449 113.661 34.5385 114.193C34.2965 114.448 34.0462 114.696 33.7878 114.939C33.6142 115.102 33.4448 115.267 33.2795 115.434C32.7567 115.961 32.2747 116.507 31.8329 117.067C31.3728 117.651 30.9561 118.251 30.5821 118.865ZM39.4969 102.94C39.6825 102.926 39.8695 102.901 40.0567 102.863C42.4184 102.382 43.9435 100.078 43.4632 97.7168C43.375 97.2832 43.273 96.851 43.157 96.4208L43.152 96.4023C43.1387 96.3528 43.1245 96.3037 43.1096 96.255C43.098 96.2055 43.0856 96.1559 43.0723 96.1064L43.0673 96.0879C43.0132 95.8873 42.9641 95.6868 42.92 95.4865C42.4411 93.3131 40.4188 91.8783 38.2586 92.0798C38.2458 92.461 38.2454 92.8438 38.2577 93.2275C38.2689 93.5742 38.2904 93.9217 38.3226 94.2697C38.3576 94.6487 38.4052 95.0284 38.4657 95.4081C38.5196 95.7473 38.5839 96.0865 38.6586 96.4255C38.7173 96.6918 38.7824 96.9579 38.854 97.2237L38.9438 97.5566C39.036 97.8986 39.117 98.242 39.1871 98.5865C39.2403 98.8482 39.2872 99.1105 39.3277 99.3731C39.3984 99.8307 39.45 100.289 39.4827 100.748C39.5019 101.017 39.5146 101.287 39.5209 101.556C39.5317 102.018 39.5236 102.479 39.4969 102.94ZM38.948 87.7565C40.9576 88.6101 43.3327 87.8416 44.4402 85.8983C44.6481 85.5335 44.8726 85.1763 45.1133 84.828C46.3882 82.9826 46.0461 80.5005 44.3942 79.061C43.8522 79.5561 43.3413 80.0788 42.8633 80.6259C42.3826 81.1763 41.9351 81.7513 41.5231 82.3477C41.2112 82.7992 40.9195 83.263 40.649 83.7376C40.2879 84.3713 39.9645 85.0242 39.6809 85.693C39.3956 86.3659 39.1506 87.0549 38.948 87.7565ZM47.9401 76.483C48.813 78.5044 51.0887 79.583 53.2388 78.9151C53.4439 78.8513 53.6515 78.7913 53.8615 78.7352L54.5384 78.5541C56.8665 77.9314 58.249 75.5393 57.6263 73.2111L52.734 74.5197C52.468 74.5909 52.2047 74.667 51.9443 74.7479C51.2413 74.9662 50.5587 75.2197 49.8982 75.5056C49.2218 75.7983 48.5685 76.1251 47.9401 76.483ZM60.0254 72.5694C60.6481 74.8976 63.0402 76.2801 65.3684 75.6573L66.7221 75.2952C69.0502 74.6725 70.4327 72.2804 69.81 69.9523L60.0254 72.5694Z" fill="#1B1F21"/>
<path d="M138.294 137.641C137.963 136.409 137.941 135.271 138.226 134.227C138.527 133.156 139.084 132.24 139.898 131.48C140.711 130.719 141.719 130.178 142.921 129.856C144.144 129.528 145.287 129.493 146.351 129.751C147.43 129.98 148.356 130.487 149.131 131.27C149.921 132.025 150.485 133.03 150.821 134.285C151.151 135.517 151.166 136.669 150.865 137.74C150.58 138.784 150.03 139.686 149.217 140.446C148.424 141.201 147.417 141.742 146.194 142.07C144.991 142.392 143.851 142.438 142.772 142.208C141.688 141.956 140.747 141.442 139.951 140.664C139.176 139.881 138.624 138.874 138.294 137.641ZM141.963 136.658C142.17 137.428 142.577 137.979 143.186 138.312C143.789 138.622 144.47 138.675 145.229 138.472C145.968 138.274 146.517 137.879 146.878 137.287C147.261 136.689 147.352 136.016 147.151 135.268C146.945 134.498 146.53 133.96 145.905 133.656C145.297 133.324 144.623 133.256 143.885 133.454C143.126 133.658 142.565 134.055 142.204 134.647C141.837 135.218 141.757 135.888 141.963 136.658Z" fill="#1B1F21"/>
<path d="M121.017 73.1657C120.687 71.9332 120.665 70.7952 120.95 69.7517C121.251 68.6804 121.808 67.7646 122.621 67.0041C123.435 66.2437 124.443 65.7024 125.645 65.3803C126.868 65.0525 128.011 65.0174 129.075 65.275C130.154 65.5048 131.08 66.0113 131.855 66.7943C132.645 67.5497 133.208 68.5546 133.545 69.809C133.875 71.0415 133.89 72.1933 133.589 73.2645C133.303 74.3081 132.754 75.2101 131.941 75.9706C131.148 76.7254 130.141 77.2667 128.917 77.5944C127.715 77.9165 126.575 77.9626 125.496 77.7328C124.411 77.4809 123.471 76.9662 122.675 76.1888C121.9 75.4058 121.348 74.3981 121.017 73.1657ZM124.687 72.1824C124.893 72.9527 125.301 73.5039 125.91 73.8361C126.513 74.1463 127.194 74.1996 127.953 73.9962C128.691 73.7984 129.241 73.4035 129.602 72.8113C129.985 72.2136 130.076 71.5405 129.875 70.7923C129.669 70.022 129.253 69.4846 128.629 69.1801C128.02 68.8479 127.347 68.7807 126.609 68.9785C125.85 69.1819 125.289 69.5797 124.928 70.1718C124.561 70.742 124.481 71.4121 124.687 72.1824Z" fill="#1B1F21"/>
<path d="M201.725 75.2763C196.227 76.7495 193.343 82.0877 194.889 87.86C196.449 93.6804 201.603 96.923 207.104 95.4491C209.715 94.7493 211.681 93.2619 212.811 91.2649C213.941 89.2682 214.223 86.7827 213.507 84.1074L213.002 82.2244L202.252 85.1049L203.199 88.6403L209.981 86.823C210.376 89.0569 208.788 91.0713 206.147 91.779C204.419 92.2419 202.865 91.9762 201.611 91.1187C200.353 90.2583 199.377 88.7865 198.844 86.8002C198.32 84.8425 198.462 83.106 199.139 81.7537C199.814 80.4045 201.034 79.4153 202.713 78.9654C203.918 78.6427 204.995 78.6927 205.917 79.0597C206.84 79.4268 207.626 80.1182 208.236 81.1093L208.354 81.3004L211.772 79.2106L211.66 79.0202C209.704 75.672 205.95 74.1441 201.725 75.2763Z" fill="#1B1F21"/>
<path d="M60.1615 113.483L56.2396 114.534L61.5058 134.187L65.1902 133.2L61.4574 119.269L68.4993 124.898L69.4091 124.654L72.6732 116.187L76.4253 130.19L80.1343 129.196L74.8681 109.542L70.9448 110.593L67.6049 119.454L60.1615 113.483Z" fill="#1B1F21"/>
<path fill-rule="evenodd" clip-rule="evenodd" d="M88.2601 105.954L84.2635 107.025L82.3293 128.608L86.241 127.559L86.7218 121.278L93.1104 119.567L96.6673 124.766L100.727 123.678L88.2601 105.954ZM90.8948 116.344L87.029 117.38L87.4987 111.401L90.8948 116.344Z" fill="#1B1F21"/>
<path fill-rule="evenodd" clip-rule="evenodd" d="M105.047 101.456L97.6649 103.434L102.931 123.087L106.763 122.061L104.717 114.424L107.333 113.723L114.081 120.1L118.457 118.927L111.007 111.879C112.795 110.493 113.639 108.33 112.955 105.777C112.47 103.967 111.418 102.634 110.013 101.881C108.611 101.128 106.878 100.965 105.047 101.456ZM103.749 110.812L102.465 106.019L105.965 105.081C106.756 104.869 107.448 104.949 107.985 105.247C108.521 105.544 108.927 106.073 109.123 106.804C109.322 107.548 109.234 108.208 108.919 108.73C108.603 109.252 108.042 109.662 107.249 109.874L103.749 110.812Z" fill="#1B1F21"/>
<path d="M119.265 97.6461L115.432 98.6729L120.699 118.327L124.531 117.3L122.258 108.818L123.897 108.379L132.128 115.264L136.695 114.04L126.605 105.532L131.233 94.4392L126.595 95.6818L122.998 104.611L121.256 105.077L119.265 97.6461Z" fill="#1B1F21"/>
<path d="M145.942 90.4979L133.296 93.8864L138.562 113.54L151.454 110.086L150.486 106.473L141.426 108.901L140.135 104.083L146.216 102.453L145.248 98.8409L139.167 100.47L138.096 96.4718L146.91 94.1101L145.942 90.4979Z" fill="#1B1F21"/>
<path d="M162.154 86.154L147.563 90.0637L148.551 93.7528L153.918 92.3147L158.196 108.279L162.028 107.252L157.75 91.2878L163.142 89.8431L162.154 86.154Z" fill="#1B1F21"/>
<path d="M168.672 84.4074L164.84 85.4343L170.106 105.088L173.938 104.061L168.672 84.4074Z" fill="#1B1F21"/>
<path d="M176.971 82.1837L173.014 83.2439L178.28 102.898L181.916 101.924L178.271 88.3208L190.391 99.6524L194.349 98.5921L189.082 78.9385L185.423 79.9191L189.041 93.4223L176.971 82.1837Z" fill="#1B1F21"/>
</svg>
