<svg width="180" height="181" viewBox="0 0 180 181" fill="none" xmlns="http://www.w3.org/2000/svg">
<path d="M180 90.5C180 140.206 139.706 180.5 90 180.5C40.2944 180.5 0 140.206 0 90.5C0 40.7944 40.2944 0.5 90 0.5C139.706 0.5 180 40.7944 180 90.5ZM49.8808 90.5C49.8808 112.657 67.8428 130.619 90 130.619C112.157 130.619 130.119 112.657 130.119 90.5C130.119 68.3428 112.157 50.3808 90 50.3808C67.8428 50.3808 49.8808 68.3428 49.8808 90.5Z" fill="#ACD6DE"/>
<path d="M162.001 103.379C164.588 102.962 166.178 101.155 166.464 98.1906C166.762 95.1063 165.178 92.4666 162.615 92.2187C159.311 91.8992 158.445 94.5849 157.698 96.8778C157.169 98.5854 156.724 100.058 155.302 99.921C153.84 99.7796 153.338 98.4978 153.489 96.9357C153.655 95.2132 154.532 94.0852 156.435 93.8447L155.927 90.9452C153.112 91.4209 151.373 93.3146 151.048 96.6793C150.724 100.024 152.284 102.5 155.127 102.775C158.331 103.084 159.331 100.472 160.057 98.1976C160.627 96.4738 161.077 94.9607 162.459 95.0943C163.62 95.2067 164.206 96.2539 164.043 97.9362C163.894 99.4784 162.938 100.377 161.548 100.545L162.001 103.379Z" fill="#1B1F21"/>
<path d="M158.016 105.188C153.79 103.745 149.666 105.676 148.224 109.903C146.781 114.131 148.864 118.18 153.091 119.623C157.337 121.072 161.441 119.135 162.884 114.907C164.326 110.68 162.262 106.637 158.016 105.188ZM154.02 116.899C151.05 115.886 149.719 113.433 150.642 110.728C151.564 108.024 154.117 106.897 157.087 107.911C160.057 108.925 161.388 111.378 160.466 114.082C159.543 116.786 156.99 117.913 154.02 116.899Z" fill="#1B1F21"/>
<path d="M144.598 119.247L143.133 121.606L148.517 124.949L145.885 129.188L148.004 130.505L150.636 126.265L153.832 128.25L150.266 133.994L152.386 135.31L157.416 127.207L144.598 119.247Z" fill="#1B1F21"/>
<path d="M136.432 130.896L134.549 132.936L143.759 141.439L140.77 144.677L142.648 146.41L150.494 137.909L148.616 136.176L145.642 139.399L136.432 130.896Z" fill="#1B1F21"/>
<path d="M130.265 149.794L129.385 142.422L137.726 150.715L140.051 149.162L129.148 138.298L126.705 139.929L127.44 146.068L121.987 143.08L119.561 144.7L125.412 158.938L127.704 157.407L123.216 146.517L129.78 150.118L130.265 149.794Z" fill="#1B1F21"/>
<path d="M117.18 146.126L114.518 147.046L114.43 151.845L109.258 153.632L106.228 149.911L103.451 150.87L113.817 163.255L116.669 162.269L117.18 146.126ZM114.376 154.461L114.268 159.756L110.915 155.657L114.376 154.461Z" fill="#1B1F21"/>
<path d="M102.413 150.903L99.6534 151.203L100.299 157.164L97.8992 157.424L93.4334 151.877L90.2934 152.217L95.1577 158.268C93.5427 159.05 92.5723 160.551 92.789 162.552C93.0859 165.292 95.3188 166.852 98.2188 166.537L104.039 165.907L102.413 150.903ZM97.9901 164.053C96.6301 164.2 95.6812 163.473 95.549 162.253C95.4146 161.012 96.1879 160.119 97.5479 159.972L100.568 159.644L101.01 163.725L97.9901 164.053Z" fill="#1B1F21"/>
<path d="M88.2722 151.991L78.1481 150.933L77.8889 153.414L85.2519 154.184L84.8234 158.286L79.8814 157.77L79.6222 160.251L84.5642 160.768L84.2026 164.23L77.0396 163.481L76.7804 165.963L86.7045 167L88.2722 151.991Z" fill="#1B1F21"/>
<path d="M69.6731 155.454C69.4039 156.155 69.0144 156.703 68.5043 157.096C67.9769 157.497 67.3763 157.733 66.7023 157.805C66.0283 157.877 65.3345 157.776 64.6208 157.502C63.8946 157.223 63.3113 156.834 62.8709 156.334C62.4132 155.843 62.1287 155.274 62.0175 154.627C61.889 153.989 61.9617 153.313 62.2357 152.599C62.5048 151.898 62.903 151.346 63.4304 150.945C63.9404 150.552 64.5325 150.32 65.2064 150.248C65.8679 150.171 66.5617 150.272 67.2879 150.551C68.0016 150.825 68.5873 151.208 69.045 151.7C69.4979 152.204 69.7862 152.782 69.9099 153.433C70.0211 154.079 69.9422 154.753 69.6731 155.454ZM67.4944 154.618C67.6626 154.179 67.6532 153.773 67.4661 153.4C67.2743 153.039 66.9529 152.772 66.5022 152.599C66.064 152.431 65.6504 152.423 65.2615 152.575C64.8601 152.723 64.5777 153.01 64.4143 153.435C64.2461 153.874 64.2642 154.276 64.4686 154.642C64.6556 155.015 64.9683 155.286 65.4065 155.454C65.8573 155.627 66.2771 155.638 66.666 155.485C67.0501 155.345 67.3262 155.056 67.4944 154.618Z" fill="#1B1F21"/>
<path d="M42.7809 145.872C41.8267 148.313 42.5763 150.6 44.9841 152.352C47.4894 154.175 50.5673 154.15 52.082 152.067C54.0346 149.382 52.1608 147.272 50.5651 145.464C49.3628 144.142 48.3202 143.01 49.1604 141.855C50.0243 140.667 51.3835 140.884 52.6524 141.808C54.0515 142.826 54.5779 144.154 53.819 145.916L56.5743 146.95C57.5936 144.283 56.8455 141.823 54.1124 139.834C51.3956 137.858 48.4715 137.945 46.7911 140.255C44.8977 142.859 46.6398 145.047 48.2311 146.827C49.426 148.194 50.5012 149.349 49.6846 150.472C48.9983 151.416 47.7988 151.389 46.4322 150.395C45.1796 149.483 44.8913 148.204 45.452 146.92L42.7809 145.872Z" fill="#1B1F21"/>
<path d="M43.2166 141.477C46.6062 138.568 47.0384 134.035 44.1305 130.645C41.2226 127.255 36.6773 126.993 33.2878 129.901C29.8829 132.823 29.466 137.343 32.3739 140.733C35.2819 144.124 39.8118 144.399 43.2166 141.477ZM35.1609 132.085C37.5427 130.041 40.3314 130.14 42.1914 132.309C44.0514 134.477 43.7254 137.249 41.3435 139.293C38.9617 141.337 36.173 141.238 34.313 139.069C32.453 136.901 32.779 134.129 35.1609 132.085Z" fill="#1B1F21"/>
<path d="M37.954 122.847L36.6582 120.392L31.054 123.35L28.7253 118.937L26.5192 120.101L28.8478 124.515L25.5209 126.271L22.3659 120.292L20.1598 121.456L24.6105 129.891L37.954 122.847Z" fill="#1B1F21"/>
<path d="M32.0574 109.988L31.2505 107.331L19.2586 110.975L17.978 106.759L15.5335 107.502L18.8958 118.572L21.3404 117.829L20.0656 113.632L32.0574 109.988Z" fill="#1B1F21"/>
<path d="M18.8935 95.0574L25.6837 98.0554L14.2995 101.009L14.4504 103.801L29.3523 99.9527L29.1937 97.0192L23.5386 94.5241L28.8874 91.3532L28.7298 88.4399L13.5 86.2208L13.6488 88.9734L25.3041 90.6604L18.862 94.4748L18.8935 95.0574Z" fill="#1B1F21"/>
<path d="M28.683 85.5585L29.2424 82.7976L25.1535 80.2853L26.2403 74.9213L30.9844 74.1994L31.5677 71.3202L15.6377 73.9631L15.0384 76.9212L28.683 85.5585ZM22.9279 78.9104L18.4216 76.1287L23.6551 75.3212L22.9279 78.9104Z" fill="#1B1F21"/>
<path d="M31.9854 70.5036L33.1332 67.9753L27.6747 65.4962L28.6728 63.2976L35.7199 62.2775L37.0258 59.4011L29.3427 60.5081C29.4918 58.7195 28.6937 57.1195 26.862 56.2876C24.3526 55.1478 21.874 56.2761 20.6679 58.9327L18.2475 64.2641L31.9854 70.5036ZM22.9226 60.0009C23.4882 58.7551 24.5969 58.3084 25.7142 58.8159C26.8499 59.3317 27.2249 60.4522 26.6593 61.6981L25.4034 64.4646L21.6667 62.7674L22.9226 60.0009Z" fill="#1B1F21"/>
<path d="M38.156 57.8197L44.2337 49.6522L42.2327 48.1625L37.8125 54.1024L34.5042 51.6396L37.4711 47.6527L35.47 46.163L32.5032 50.1498L29.7113 48.0714L34.0114 42.2929L32.0103 40.8032L26.0527 48.8092L38.156 57.8197Z" fill="#1B1F21"/>
<path d="M44.5308 40.0642C44.0629 39.4766 43.7887 38.8633 43.7084 38.2241C43.6301 37.5662 43.731 36.9284 44.0108 36.311C44.2907 35.6936 44.7296 35.1467 45.3275 34.6702C45.9359 34.1855 46.567 33.8799 47.2207 33.7534C47.8766 33.6082 48.5112 33.6514 49.1244 33.8831C49.7397 34.096 50.2855 34.5014 50.7619 35.0995C51.2298 35.687 51.5029 36.3098 51.5811 36.9678C51.6615 37.6069 51.5617 38.2352 51.2819 38.8526C51.0125 39.4617 50.5736 40.0086 49.9652 40.4934C49.3673 40.9698 48.7404 41.2807 48.0845 41.426C47.4203 41.5608 46.7763 41.5165 46.1526 41.2931C45.5394 41.0614 44.9988 40.6517 44.5308 40.0642ZM46.3561 38.6099C46.6486 38.9771 47.0032 39.1748 47.4199 39.2029C47.8283 39.2205 48.2213 39.0788 48.599 38.7779C48.9661 38.4854 49.1826 38.1329 49.2484 37.7203C49.3246 37.2994 49.2207 36.9105 48.9366 36.5538C48.6441 36.1866 48.2885 35.9983 47.8696 35.9891C47.4528 35.961 47.0609 36.0932 46.6937 36.3857C46.3161 36.6866 46.0944 37.0433 46.0286 37.4559C45.9545 37.858 46.0636 38.2426 46.3561 38.6099Z" fill="#1B1F21"/>
<path d="M66.4362 21.6196C64.8143 19.5612 62.4626 19.0506 59.7336 20.2413C56.894 21.4803 55.358 24.1482 56.3876 26.5089C57.7148 29.552 60.4822 29.0031 62.8487 28.5413C64.5977 28.1734 66.1013 27.8466 66.6724 29.156C67.2596 30.5024 66.3841 31.5649 64.9459 32.1924C63.3601 32.8843 61.9481 32.6662 60.8129 31.12L58.5267 32.9736C60.3109 35.2027 62.811 35.8021 65.9088 34.4505C68.9881 33.107 70.3927 30.5403 69.2505 27.9214C67.9635 24.9705 65.1951 25.3662 62.8551 25.8384C61.0716 26.1775 59.5311 26.5204 58.9761 25.2478C58.5096 24.1781 59.1396 23.1568 60.6885 22.481C62.1083 21.8615 63.3577 22.2603 64.1812 23.3938L66.4362 21.6196Z" fill="#1B1F21"/>
<path d="M70.0141 24.1816C70.8004 28.5788 74.4868 31.2511 78.8831 30.4646C83.2793 29.6781 85.811 25.8933 85.0246 21.4961C84.2347 17.0791 80.5518 14.4266 76.1556 15.2131C71.7594 15.9997 69.2242 19.7647 70.0141 24.1816ZM82.1928 22.0027C82.7454 25.0926 81.2452 27.446 78.4332 27.9491C75.6212 28.4522 73.3985 26.7649 72.8459 23.675C72.2933 20.5851 73.7935 18.2317 76.6055 17.7286C79.4175 17.2255 81.6402 18.9128 82.1928 22.0027Z" fill="#1B1F21"/>
<path d="M89.0157 29.0721L91.7884 29.2113L92.1061 22.8811L97.0889 23.1313L97.214 20.6394L92.2312 20.3891L92.4198 16.6312L99.1707 16.9702L99.2958 14.4782L89.7722 14L89.0157 29.0721Z" fill="#1B1F21"/>
<path d="M102.861 30.4788L105.558 31.1336L108.514 18.9514L112.795 19.9905L113.398 17.5071L102.157 14.7789L101.554 17.2623L105.816 18.2966L102.861 30.4788Z" fill="#1B1F21"/>
<path d="M122.757 26.8345L116.712 31.1431L119.987 19.8448L117.509 18.5485L113.208 33.3291L115.811 34.6907L120.843 31.1016L120.838 37.3206L123.422 38.6728L133.107 26.7087L130.665 25.4311L123.263 34.5929L123.274 27.105L122.757 26.8345Z" fill="#1B1F21"/>
<path d="M125.801 40.0245L127.891 41.9126L132.135 39.6734L136.196 43.3416L134.4 47.7925L136.58 49.7614L142.423 34.7046L140.183 32.6817L125.801 40.0245ZM134.452 38.4584L139.141 35.9972L137.17 40.9129L134.452 38.4584Z" fill="#1B1F21"/>
<path d="M137.018 50.4623L138.618 52.7315L143.517 49.2755L144.908 51.2486L142.224 57.8453L144.044 60.4268L146.975 53.2375C148.443 54.2708 150.226 54.3914 151.87 53.2317C154.122 51.6429 154.403 48.9335 152.722 46.5493L149.348 41.7643L137.018 50.4623ZM150.66 47.9544C151.448 49.0726 151.273 50.2551 150.27 50.9625C149.251 51.6816 148.095 51.4384 147.306 50.3203L145.555 47.8374L148.909 45.4715L150.66 47.9544Z" fill="#1B1F21"/>
<path d="M144.878 62.2692L148.843 71.6464L151.141 70.6744L148.257 63.8547L152.055 62.2478L153.991 66.8252L156.288 65.8532L154.352 61.2758L157.558 59.9198L160.363 66.5542L162.661 65.5823L158.774 56.3904L144.878 62.2692Z" fill="#1B1F21"/>
<path d="M156.947 76.8377C157.691 76.7338 158.359 76.81 158.95 77.0661C159.556 77.3336 160.053 77.745 160.442 78.3002C160.831 78.8554 161.078 79.5116 161.184 80.2689C161.292 81.0394 161.233 81.7383 161.009 82.3655C160.801 83.0042 160.44 83.5285 159.929 83.9385C159.433 84.36 158.806 84.6236 158.049 84.7293C157.305 84.8331 156.63 84.7512 156.024 84.4837C155.433 84.2276 154.943 83.8219 154.554 83.2667C154.167 82.7248 153.92 82.0686 153.812 81.298C153.706 80.5407 153.758 79.8428 153.967 79.2041C154.189 78.5637 154.555 78.0317 155.064 77.6084C155.576 77.1984 156.204 76.9415 156.947 76.8377ZM157.27 79.1493C156.805 79.2142 156.455 79.4189 156.218 79.7635C155.995 80.1061 155.917 80.5166 155.984 80.9949C156.049 81.4598 156.242 81.8256 156.564 82.0923C156.887 82.3722 157.275 82.4806 157.726 82.4176C158.191 82.3527 158.534 82.1423 158.755 81.7863C158.992 81.4418 159.077 81.0371 159.012 80.5721C158.946 80.0938 158.751 79.7213 158.43 79.4547C158.122 79.1862 157.735 79.0844 157.27 79.1493Z" fill="#1B1F21"/>
</svg>
