<svg width="180" height="181" viewBox="0 0 180 181" fill="none" xmlns="http://www.w3.org/2000/svg">
<path d="M109.425 28.676L108.585 29.2193L109.425 28.676L92.5186 2.55134C91.3364 0.724528 88.6636 0.724521 87.4814 2.55133L70.5752 28.676C70.318 29.0734 69.8174 29.236 69.3758 29.0657L40.3427 17.8676C38.3125 17.0846 36.1501 18.6556 36.2675 20.8284L37.9458 51.901C37.9713 52.3736 37.6619 52.7994 37.2045 52.9212L7.13415 60.927C5.03144 61.4868 4.20547 64.0289 5.57755 65.7177L25.1993 89.8694C25.4978 90.2368 25.4978 90.7632 25.1993 91.1306L5.57756 115.282C4.20547 116.971 5.03142 119.513 7.13415 120.073L37.2045 128.079C37.6619 128.201 37.9713 128.626 37.9458 129.099L36.2675 160.172C36.1501 162.344 38.3125 163.915 40.3427 163.132L69.3758 151.934C69.8174 151.764 70.318 151.927 70.5752 152.324L87.4814 178.449C88.6636 180.275 91.3364 180.275 92.5186 178.449L109.425 152.324C109.682 151.927 110.183 151.764 110.624 151.934L139.657 163.132C141.687 163.915 143.85 162.344 143.733 160.172L142.054 129.099C142.029 128.626 142.338 128.201 142.796 128.079L172.866 120.073C174.969 119.513 175.795 116.971 174.422 115.282L154.801 91.1306C154.502 90.7632 154.502 90.2368 154.801 89.8694L174.422 65.7177C175.795 64.0289 174.969 61.4868 172.866 60.927L142.796 52.9212C142.338 52.7994 142.029 52.3736 142.054 51.901L143.733 20.8285C143.85 18.6556 141.688 17.0846 139.657 17.8676L110.624 29.0657C110.183 29.236 109.682 29.0734 109.425 28.676Z" fill="#90EECB" stroke="#90EECB" stroke-width="2"/>
<path fill-rule="evenodd" clip-rule="evenodd" d="M89.6336 14.3406L75.4056 36.3267C74.1197 38.3138 71.6168 39.127 69.4085 38.2753L44.9747 28.8512L46.3871 55.0013C46.5148 57.3647 44.9679 59.4938 42.6808 60.1027L17.374 66.8402L33.8874 87.166C35.3798 89.0029 35.3798 91.6346 33.8874 93.4716L17.374 113.797L42.6808 120.535C44.9679 121.144 46.5148 123.273 46.3871 125.636L44.9747 151.786L69.4085 142.362C71.6168 141.511 74.1197 142.324 75.4055 144.311L89.6336 166.297L103.862 144.311C105.147 142.324 107.65 141.511 109.859 142.362L134.292 151.786L132.88 125.636C132.752 123.273 134.299 121.144 136.586 120.535L161.893 113.797L145.38 93.4716C143.887 91.6346 143.887 89.0029 145.38 87.166L161.893 66.8402L136.586 60.1027C134.299 59.4938 132.752 57.3647 132.88 55.0013L134.292 28.8512L109.859 38.2753C107.65 39.127 105.147 38.3138 103.862 36.3267L89.6336 14.3406ZM91.3126 11.4134C90.5245 10.1955 88.7426 10.1955 87.9545 11.4134L72.8869 34.6969C72.3726 35.4917 71.3714 35.817 70.4881 35.4763L44.6126 25.4961C43.2591 24.974 41.8175 26.0214 41.8957 27.4699L43.3915 55.1631C43.4426 56.1085 42.8238 56.9601 41.909 57.2037L15.109 64.3388C13.7071 64.712 13.1565 66.4067 14.0712 67.5326L31.559 89.0576C32.1559 89.7924 32.1559 90.8451 31.559 91.5799L14.0712 113.105C13.1565 114.231 13.7071 115.926 15.109 116.299L41.909 123.434C42.8238 123.677 43.4426 124.529 43.3915 125.474L41.8957 153.168C41.8175 154.616 43.2591 155.664 44.6126 155.141L70.4881 145.161C71.3714 144.821 72.3726 145.146 72.8869 145.941L87.9545 169.224C88.7426 170.442 90.5245 170.442 91.3126 169.224L106.38 145.941C106.895 145.146 107.896 144.821 108.779 145.161L134.655 155.141C136.008 155.664 137.45 154.616 137.371 153.168L135.876 125.474C135.825 124.529 136.443 123.677 137.358 123.434L164.158 116.299C165.56 115.926 166.111 114.231 165.196 113.105L147.708 91.5799C147.111 90.8451 147.111 89.7924 147.708 89.0576L165.196 67.5326C166.111 66.4067 165.56 64.712 164.158 64.3388L137.358 57.2037C136.443 56.9601 135.825 56.1085 135.876 55.1631L137.371 27.4699C137.45 26.0214 136.008 24.974 134.655 25.4961L108.779 35.4763C107.896 35.817 106.895 35.4917 106.38 34.6969L91.3126 11.4134Z" fill="#1B1F21"/>
<path d="M51.6221 76.3033V63.6967H59.8712V65.8604H54.3082V68.936H59.49V71.0997H54.3082V76.3033H51.6221Z" fill="#1B1F21"/>
<path d="M59.188 76.3033L64.803 63.6967H66.9693L72.5843 76.3033H69.8808L68.737 73.5674H63.0353L61.9089 76.3033H59.188ZM65.8602 66.6472L63.9365 71.4037H67.8531L65.8948 66.6472H65.8602Z" fill="#1B1F21"/>
<path d="M77.8551 76.5C76.8961 76.5 75.9892 76.3748 75.1342 76.1245C74.2908 75.8741 73.5861 75.5344 73.02 75.1052L73.7998 72.9237C74.3428 73.3171 74.9609 73.627 75.6542 73.8535C76.3589 74.08 77.0926 74.1933 77.8551 74.1933C78.6869 74.1933 79.2819 74.0621 79.6401 73.7999C80.0098 73.5257 80.1947 73.1859 80.1947 72.7806C80.1947 72.4349 80.0676 72.1607 79.8134 71.958C79.5592 71.7554 79.1144 71.5825 78.479 71.4395L76.5207 71.0103C74.3371 70.5335 73.2453 69.3652 73.2453 67.5055C73.2453 66.7068 73.4532 66.0094 73.8691 65.4133C74.2851 64.8054 74.8627 64.3345 75.6022 64.0007C76.3531 63.6669 77.2196 63.5 78.2017 63.5C79.0451 63.5 79.8365 63.6252 80.5759 63.8755C81.3153 64.1259 81.9277 64.4775 82.4129 64.9305L81.6331 66.9691C80.6857 66.1942 79.5361 65.8067 78.1844 65.8067C77.4565 65.8067 76.8904 65.9558 76.486 66.2538C76.0932 66.5399 75.8968 66.9154 75.8968 67.3803C75.8968 67.726 76.0181 68.0062 76.2607 68.2208C76.5033 68.4354 76.925 68.6082 77.5258 68.7393L79.4841 69.1685C81.7255 69.6692 82.8462 70.8017 82.8462 72.566C82.8462 73.3528 82.6382 74.0442 82.2223 74.6403C81.8179 75.2244 81.2402 75.6834 80.4893 76.0172C79.7498 76.3391 78.8718 76.5 77.8551 76.5Z" fill="#1B1F21"/>
<path d="M84.59 76.3033V63.6967H87.2762V68.7572H92.9605V63.6967H95.6467V76.3033H92.9605V71.064H87.2762V76.3033H84.59Z" fill="#1B1F21"/>
<path d="M98.1123 76.3033V63.6967H100.798V76.3033H98.1123Z" fill="#1B1F21"/>
<path d="M108.907 76.5C107.706 76.5 106.649 76.2318 105.736 75.6953C104.835 75.147 104.13 74.39 103.622 73.4243C103.125 72.4468 102.876 71.3024 102.876 69.9911C102.876 68.6797 103.125 67.5413 103.622 66.5757C104.13 65.5981 104.835 64.8411 105.736 64.3047C106.637 63.7682 107.694 63.5 108.907 63.5C110.12 63.5 111.177 63.7682 112.079 64.3047C112.991 64.8411 113.696 65.5981 114.193 66.5757C114.701 67.5413 114.955 68.6738 114.955 69.9732C114.955 71.2845 114.701 72.4289 114.193 73.4065C113.696 74.384 112.991 75.147 112.079 75.6953C111.177 76.2318 110.12 76.5 108.907 76.5ZM108.907 74.1396C109.924 74.1396 110.715 73.776 111.281 73.0488C111.859 72.3097 112.148 71.2905 112.148 69.9911C112.148 68.6797 111.865 67.6664 111.299 66.9512C110.733 66.224 109.936 65.8604 108.907 65.8604C107.902 65.8604 107.111 66.224 106.533 66.9512C105.967 67.6664 105.684 68.6797 105.684 69.9911C105.684 71.2905 105.967 72.3097 106.533 73.0488C107.111 73.776 107.902 74.1396 108.907 74.1396Z" fill="#1B1F21"/>
<path d="M117.033 76.3033V63.6967H119.026L125.127 71.7256V63.6967H127.622V76.3033H125.646L119.529 68.2565V76.3033H117.033Z" fill="#1B1F21"/>
<path d="M51.6221 97.3033V84.6967H59.8712V86.8604H54.3082V89.936H59.49V92.0997H54.3082V97.3033H51.6221Z" fill="#1B1F21"/>
<path d="M59.188 97.3033L64.803 84.6967H66.9693L72.5843 97.3033H69.8808L68.737 94.5674H63.0353L61.9089 97.3033H59.188ZM65.8602 87.6472L63.9365 92.4037H67.8531L65.8948 87.6472H65.8602Z" fill="#1B1F21"/>
<path d="M77.8551 97.5C76.8961 97.5 75.9892 97.3748 75.1342 97.1245C74.2908 96.8741 73.5861 96.5344 73.02 96.1052L73.7998 93.9237C74.3428 94.3171 74.9609 94.627 75.6542 94.8535C76.3589 95.08 77.0926 95.1933 77.8551 95.1933C78.6869 95.1933 79.2819 95.0621 79.6401 94.7999C80.0098 94.5257 80.1947 94.1859 80.1947 93.7806C80.1947 93.4349 80.0676 93.1607 79.8134 92.958C79.5592 92.7554 79.1144 92.5825 78.479 92.4395L76.5207 92.0103C74.3371 91.5335 73.2453 90.3652 73.2453 88.5055C73.2453 87.7068 73.4532 87.0094 73.8691 86.4133C74.2851 85.8054 74.8627 85.3345 75.6022 85.0007C76.3531 84.6669 77.2196 84.5 78.2017 84.5C79.0451 84.5 79.8365 84.6252 80.5759 84.8755C81.3153 85.1259 81.9277 85.4775 82.4129 85.9305L81.6331 87.9691C80.6857 87.1942 79.5361 86.8067 78.1844 86.8067C77.4565 86.8067 76.8904 86.9558 76.486 87.2538C76.0932 87.5399 75.8968 87.9154 75.8968 88.3803C75.8968 88.726 76.0181 89.0062 76.2607 89.2208C76.5033 89.4354 76.925 89.6082 77.5258 89.7393L79.4841 90.1685C81.7255 90.6692 82.8462 91.8017 82.8462 93.566C82.8462 94.3528 82.6382 95.0442 82.2223 95.6403C81.8179 96.2244 81.2402 96.6834 80.4893 97.0172C79.7498 97.3391 78.8718 97.5 77.8551 97.5Z" fill="#1B1F21"/>
<path d="M84.59 97.3033V84.6967H87.2762V89.7572H92.9605V84.6967H95.6467V97.3033H92.9605V92.064H87.2762V97.3033H84.59Z" fill="#1B1F21"/>
<path d="M98.1123 97.3033V84.6967H100.798V97.3033H98.1123Z" fill="#1B1F21"/>
<path d="M108.907 97.5C107.706 97.5 106.649 97.2318 105.736 96.6953C104.835 96.1469 104.13 95.39 103.622 94.4243C103.125 93.4468 102.876 92.3024 102.876 90.9911C102.876 89.6797 103.125 88.5413 103.622 87.5757C104.13 86.5981 104.835 85.8411 105.736 85.3047C106.637 84.7682 107.694 84.5 108.907 84.5C110.12 84.5 111.177 84.7682 112.079 85.3047C112.991 85.8411 113.696 86.5981 114.193 87.5757C114.701 88.5413 114.955 89.6738 114.955 90.9732C114.955 92.2845 114.701 93.4289 114.193 94.4065C113.696 95.384 112.991 96.1469 112.079 96.6953C111.177 97.2318 110.12 97.5 108.907 97.5ZM108.907 95.1396C109.924 95.1396 110.715 94.776 111.281 94.0488C111.859 93.3097 112.148 92.2905 112.148 90.9911C112.148 89.6797 111.865 88.6664 111.299 87.9512C110.733 87.224 109.936 86.8604 108.907 86.8604C107.902 86.8604 107.111 87.224 106.533 87.9512C105.967 88.6664 105.684 89.6797 105.684 90.9911C105.684 92.2905 105.967 93.3097 106.533 94.0488C107.111 94.776 107.902 95.1396 108.907 95.1396Z" fill="#1B1F21"/>
<path d="M117.033 97.3033V84.6967H119.026L125.127 92.7256V84.6967H127.622V97.3033H125.646L119.529 89.2565V97.3033H117.033Z" fill="#1B1F21"/>
<path d="M51.6221 117.318V105.682H59.8712V107.679H54.3082V110.518H59.49V112.515H54.3082V117.318H51.6221Z" fill="#1B1F21"/>
<path d="M59.188 117.318L64.803 105.682H66.9693L72.5843 117.318H69.8808L68.737 114.793H63.0353L61.9089 117.318H59.188ZM65.8602 108.405L63.9365 112.796H67.8531L65.8948 108.405H65.8602Z" fill="#1B1F21"/>
<path d="M77.8551 117.5C76.8961 117.5 75.9892 117.384 75.1342 117.153C74.2908 116.922 73.5861 116.609 73.02 116.213L73.7998 114.199C74.3428 114.562 74.9609 114.848 75.6542 115.057C76.3589 115.266 77.0926 115.371 77.8551 115.371C78.6869 115.371 79.2819 115.25 79.6401 115.008C80.0098 114.754 80.1947 114.441 80.1947 114.067C80.1947 113.748 80.0676 113.494 79.8134 113.307C79.5592 113.12 79.1144 112.961 78.479 112.829L76.5207 112.433C74.3371 111.992 73.2453 110.914 73.2453 109.197C73.2453 108.46 73.4532 107.816 73.8691 107.266C74.2851 106.705 74.8627 106.27 75.6022 105.962C76.3531 105.654 77.2196 105.5 78.2017 105.5C79.0451 105.5 79.8365 105.616 80.5759 105.847C81.3153 106.078 81.9277 106.402 82.4129 106.82L81.6331 108.702C80.6857 107.987 79.5361 107.629 78.1844 107.629C77.4565 107.629 76.8904 107.767 76.486 108.042C76.0932 108.306 75.8968 108.653 75.8968 109.082C75.8968 109.401 76.0181 109.66 76.2607 109.858C76.5033 110.056 76.925 110.215 77.5258 110.336L79.4841 110.732C81.7255 111.195 82.8462 112.24 82.8462 113.869C82.8462 114.595 82.6382 115.233 82.2223 115.783C81.8179 116.323 81.2402 116.746 80.4893 117.054C79.7498 117.351 78.8718 117.5 77.8551 117.5Z" fill="#1B1F21"/>
<path d="M84.59 117.318V105.682H87.2762V110.353H92.9605V105.682H95.6467V117.318H92.9605V112.482H87.2762V117.318H84.59Z" fill="#1B1F21"/>
<path d="M98.1123 117.318V105.682H100.798V117.318H98.1123Z" fill="#1B1F21"/>
<path d="M108.907 117.5C107.706 117.5 106.649 117.252 105.736 116.757C104.835 116.251 104.13 115.552 103.622 114.661C103.125 113.759 102.876 112.702 102.876 111.492C102.876 110.281 103.125 109.23 103.622 108.339C104.13 107.437 104.835 106.738 105.736 106.243C106.637 105.748 107.694 105.5 108.907 105.5C110.12 105.5 111.177 105.748 112.079 106.243C112.991 106.738 113.696 107.437 114.193 108.339C114.701 109.23 114.955 110.276 114.955 111.475C114.955 112.686 114.701 113.742 114.193 114.644C113.696 115.547 112.991 116.251 112.079 116.757C111.177 117.252 110.12 117.5 108.907 117.5ZM108.907 115.321C109.924 115.321 110.715 114.986 111.281 114.314C111.859 113.632 112.148 112.691 112.148 111.492C112.148 110.281 111.865 109.346 111.299 108.686C110.733 108.014 109.936 107.679 108.907 107.679C107.902 107.679 107.111 108.014 106.533 108.686C105.967 109.346 105.684 110.281 105.684 111.492C105.684 112.691 105.967 113.632 106.533 114.314C107.111 114.986 107.902 115.321 108.907 115.321Z" fill="#1B1F21"/>
<path d="M117.033 117.318V105.682H119.026L125.127 113.093V105.682H127.622V117.318H125.646L119.529 109.891V117.318H117.033Z" fill="#1B1F21"/>
</svg>
