<svg width="180" height="181" viewBox="0 0 180 181" fill="none" xmlns="http://www.w3.org/2000/svg">
<circle cx="90" cy="90.5" r="90" fill="#BEDB39"/>
<path fill-rule="evenodd" clip-rule="evenodd" d="M90 9.5C45.2649 9.5 9 45.7649 9 90.5C9 135.235 45.2649 171.5 90 171.5C134.735 171.5 171 135.235 171 90.5C171 45.7649 134.735 9.5 90 9.5ZM12.4596 90.5C12.4596 47.6756 47.1756 12.9596 90 12.9596C132.824 12.9596 167.54 47.6756 167.54 90.5C167.54 133.324 132.824 168.04 90 168.04C47.1756 168.04 12.4596 133.324 12.4596 90.5Z" fill="#1B1F21"/>
<path d="M90 60.5L92.8067 83.5986L105.621 74.5901L96.7759 87.6414L117 90.5L96.7759 93.3586L105.621 106.41L92.8067 97.4014L90 120.5L87.1933 97.4014L74.3794 106.41L83.2241 93.3586L63 90.5L83.2241 87.6414L74.3794 74.5901L87.1933 83.5986L90 60.5Z" fill="#1B1F21"/>
<path d="M147.29 94.6827C150.495 95.1901 152.242 97.4359 151.781 100.317C151.45 102.381 150.18 103.604 148.305 103.873L148.647 106.734C151.589 106.383 153.84 104.163 154.39 100.73C155.103 96.2757 152.298 92.4797 147.758 91.7609C143.176 91.0356 139.287 93.751 138.574 98.2052C137.894 102.455 140.248 105.782 144.459 106.448L145.794 106.66L147.165 98.0986L144.679 97.7051L143.776 103.344C141.814 102.971 140.787 100.965 141.16 98.6354C141.634 95.6727 144.044 94.1688 147.29 94.6827Z" fill="#1B1F21"/>
<path d="M137.704 105.339L136.412 107.935L139.831 111.511L137.321 116.555L132.388 116.019L131.041 118.726L147.662 120.308L149.047 117.527L137.704 105.339ZM141.69 113.466L145.455 117.42L140.011 116.84L141.69 113.466Z" fill="#1B1F21"/>
<path d="M130.803 119.172L128.876 121.117L137.187 129.264L129.62 128.324L129.211 128.737L130.31 136.293L121.954 128.102L120.012 130.061L131.124 140.954L133.256 138.802L132.097 131.247L139.783 132.215L141.915 130.064L130.803 119.172Z" fill="#1B1F21"/>
<path d="M117.352 131.255L114.913 132.761L123.143 145.944L125.582 144.438L117.352 131.255Z" fill="#1B1F21"/>
<path d="M112.862 134.392L110.306 135.27L114.056 146.065L103.267 137.689L100.377 138.682L105.472 153.349L108.047 152.464L104.325 141.747L115.067 150.052L117.957 149.059L112.862 134.392Z" fill="#1B1F21"/>
<path d="M96.0051 147.001C96.0553 150.228 94.1322 152.327 91.1994 152.372C89.0987 152.404 87.6679 151.371 87.0784 149.579L84.3034 150.408C85.1586 153.23 87.7459 155.053 91.2402 154.999C95.7746 154.929 99.0505 151.527 98.9795 146.955C98.9079 142.342 95.5481 139 91.0137 139.069C86.6874 139.136 83.7986 142.015 83.8645 146.256L83.8854 147.601L92.6004 147.467L92.5616 144.964L86.8209 145.052C86.8524 143.065 88.6622 141.713 91.0334 141.676C94.0494 141.63 95.9544 143.732 96.0051 147.001Z" fill="#1B1F21"/>
<path d="M74.9938 144.811C74.7457 145.543 74.4281 146.092 74.041 146.457C73.6407 146.817 73.197 147.025 72.71 147.08C72.2186 147.149 71.7167 147.097 71.2041 146.925C70.6916 146.753 70.2671 146.494 69.9306 146.149C69.5765 145.812 69.3499 145.379 69.2509 144.851C69.1518 144.323 69.2263 143.693 69.4744 142.961C69.718 142.242 70.04 141.702 70.4403 141.341C70.8406 140.981 71.2864 140.766 71.7779 140.698C72.2561 140.626 72.7515 140.675 73.264 140.847C73.7766 141.019 74.2076 141.28 74.5573 141.63C74.9069 141.98 75.1313 142.419 75.2304 142.947C75.3163 143.471 75.2375 144.092 74.9938 144.811Z" fill="#1B1F21"/>
<path d="M59.2212 138.098C57.2271 140.645 54.4062 141.082 52.0921 139.289C50.4346 138.005 49.9705 136.308 50.6395 134.545L47.9546 133.461C46.8435 136.194 47.7116 139.226 50.4688 141.362C54.0465 144.134 58.7431 143.524 61.568 139.916C64.4185 136.276 63.9055 131.578 60.3278 128.806C56.9142 126.162 52.849 126.606 50.2285 129.952L49.3977 131.013L56.274 136.34L57.8207 134.365L53.2912 130.856C54.5675 129.327 56.8298 129.401 58.7007 130.85C61.0804 132.694 61.2408 135.519 59.2212 138.098Z" fill="#1B1F21"/>
<path d="M54.4786 124.586L52.8087 122.213L48.013 123.481L44.7688 118.87L47.6084 114.823L45.867 112.348L36.4959 126.093L38.285 128.636L54.4786 124.586ZM45.3971 124.165L40.102 125.553L43.2263 121.08L45.3971 124.165Z" fill="#1B1F21"/>
<path d="M45.6293 112.005L44.8411 109.389L33.6622 112.721L38.1293 106.573L37.9621 106.018L30.772 103.345L42.0107 99.995L41.2165 97.3591L26.2714 101.813L27.1433 104.707L34.3612 107.329L29.8125 113.566L30.6843 116.46L45.6293 112.005Z" fill="#1B1F21"/>
<path d="M41.4584 94.4399L41.3145 91.5883L25.7325 92.3664L25.8764 95.218L41.4584 94.4399Z" fill="#1B1F21"/>
<path d="M40.8683 88.8123L41.3342 86.1629L30.0232 84.195L42.6175 78.8668L43.1444 75.8709L27.7761 73.1972L27.3065 75.867L38.5356 77.8206L26.0269 83.1427L25.5 86.1385L40.8683 88.8123Z" fill="#1B1F21"/>
<path d="M37.8875 68.0978C35.0288 66.5702 34.1218 63.8778 35.51 61.308C36.5044 59.4672 38.1084 58.7273 39.9685 59.0871L40.5914 56.2727C37.697 55.642 34.8368 57.0025 33.1827 60.0644C31.0365 64.0376 32.4298 68.54 36.4796 70.704C40.5661 72.8877 45.1368 71.5957 47.283 67.6225C49.3309 63.8316 48.2085 59.9202 44.4519 57.9129L43.2608 57.2764L39.1356 64.9129L41.353 66.0978L44.0703 61.0675C45.7999 62.0622 46.1063 64.2927 44.9839 66.3705C43.5564 69.0132 40.7828 69.6449 37.8875 68.0978Z" fill="#1B1F21"/>
<path d="M49.8926 51.0013C49.3679 50.4318 49.0383 49.8904 48.9037 49.3769C48.7794 48.8541 48.8106 48.3673 48.9973 47.9166C49.1745 47.4557 49.4625 47.0435 49.8613 46.6801C50.26 46.3166 50.6928 46.0718 51.1597 45.9457C51.6274 45.8 52.1177 45.8115 52.6305 45.9802C53.1434 46.1489 53.6621 46.518 54.1868 47.0874C54.7021 47.6467 55.0219 48.1878 55.1462 48.7106C55.2705 49.2334 55.244 49.7252 55.0668 50.1861C54.8997 50.6377 54.6168 51.0452 54.2181 51.4087C53.8193 51.7721 53.3814 52.0216 52.9043 52.1571C52.4272 52.2926 51.9323 52.276 51.4194 52.1073C50.9168 51.9293 50.4079 51.5606 49.8926 51.0013Z" fill="#1B1F21"/>
<path d="M63.2124 40.538C61.926 37.5748 62.8965 34.9044 65.5893 33.748C67.5182 32.9196 69.2374 33.3306 70.4705 34.7617L72.7163 32.9409C70.8417 30.6585 67.7505 29.9578 64.542 31.3357C60.3787 33.1237 58.659 37.513 60.4814 41.7108C62.3203 45.9466 66.7093 47.7576 70.8726 45.9696C74.845 44.2637 76.408 40.505 74.7175 36.6111L74.1815 35.3765L66.1795 38.813L67.1773 41.1113L72.4483 38.8477C73.1827 40.6957 72.0298 42.6331 69.8527 43.5681C67.0835 44.7574 64.5153 43.5391 63.2124 40.538Z" fill="#1B1F21"/>
<path d="M77.4952 42.8107L80.3918 42.5098L81.6041 37.7241L87.2317 37.1394L89.4124 41.5725L92.4331 41.2586L84.8948 26.4403L81.7913 26.7628L77.4952 42.8107ZM82.2715 35.1169L83.6203 29.8387L86.037 34.7257L82.2715 35.1169Z" fill="#1B1F21"/>
<path d="M93.0185 41.1592L95.7011 41.7424L98.1931 30.4033L101.432 37.2703L102.001 37.394L107.839 32.4368L105.334 43.8366L108.037 44.4242L111.368 29.2649L108.401 28.6199L102.595 33.6264L99.3172 26.645L96.3501 26L93.0185 41.1592Z" fill="#1B1F21"/>
<path d="M110.491 46.0021L113.069 47.2593L119.939 33.3276L117.361 32.0703L110.491 46.0021Z" fill="#1B1F21"/>
<path d="M115.523 48.0655L117.632 49.749L124.819 40.8421L123.44 54.385L125.824 56.2887L135.59 44.187L133.464 42.4906L126.329 51.3328L127.673 37.8674L125.288 35.9638L115.523 48.0655Z" fill="#1B1F21"/>
<path d="M135.502 55.7601C138.227 54.0076 141.035 54.5173 142.628 56.967C143.769 58.7217 143.646 60.4761 142.431 61.9226L144.609 63.8238C146.561 61.6071 146.744 58.459 144.846 55.5402C142.384 51.7528 137.747 50.7929 133.886 53.2757C129.991 55.7809 128.922 60.3858 131.385 64.1733C133.734 67.787 137.72 68.6976 141.301 66.3946L142.436 65.6644L137.703 58.3848L135.59 59.7441L138.707 64.5393C136.996 65.5656 134.885 64.7557 133.597 62.7751C131.959 60.2559 132.742 57.5352 135.502 55.7601Z" fill="#1B1F21"/>
<path d="M144.683 74.2947C145.438 74.1125 146.074 74.0868 146.591 74.2175C147.111 74.3616 147.525 74.6237 147.832 75.0038C148.152 75.3807 148.376 75.8306 148.503 76.3533C148.631 76.8761 148.638 77.3712 148.523 77.8388C148.426 78.3165 148.179 78.738 147.783 79.1033C147.387 79.4685 146.811 79.7422 146.057 79.9244C145.316 80.1032 144.685 80.1206 144.164 79.9766C143.644 79.8325 143.224 79.572 142.903 79.1951C142.586 78.8316 142.364 78.3885 142.237 77.8657C142.109 77.343 142.101 76.8411 142.212 76.3601C142.323 75.8791 142.576 75.456 142.972 75.0908C143.372 74.7389 143.942 74.4735 144.683 74.2947Z" fill="#1B1F21"/>
</svg>
