<svg width="1208" height="520" viewBox="0 0 1208 520" fill="none" xmlns="http://www.w3.org/2000/svg">
<path d="M251.667 520C311.182 520 365.873 498.657 408.958 462.975C462.384 498.657 530.2 520 604 520C677.8 520 745.616 498.657 799.042 462.975C842.127 498.657 896.818 520 956.333 520C1095.32 520 1208 403.594 1208 260C1208 116.406 1095.32 0 956.333 0C896.818 0 842.127 21.3433 799.042 57.0255C745.616 21.3433 677.8 0 604 0C530.2 0 462.384 21.3433 408.958 57.0254C365.873 21.3433 311.182 0 251.667 0C112.675 0 0 116.406 0 260C0 403.594 112.675 520 251.667 520Z" fill="black"/>
</svg>
