<svg width="584" height="328" viewBox="0 0 584 328" fill="none" xmlns="http://www.w3.org/2000/svg">
<path d="M0 102.873C0 46.0577 47.1616 0 104.717 0C138.864 0 169.353 16.2119 188.504 41.2639C215.311 15.716 251.796 0 292 0C332.151 0 368.594 15.6747 395.39 41.1633C414.402 16.1685 444.678 0 478.779 0H584V225.127C584 281.942 536.838 328 479.283 328C445.136 328 414.647 311.788 395.495 286.736C368.689 312.284 332.204 328 292 328C251.849 328 215.406 312.325 188.61 286.837C169.598 311.831 139.322 328 105.221 328H0V102.873Z" fill="black"/>
</svg>
