<svg width="40" height="39" viewBox="0 0 40 39" fill="none" xmlns="http://www.w3.org/2000/svg">
<path d="M1.4069 0.475384L2.85172 1.67883V7.10297H10.6621L11.7241 8.4409L10.6586 9.71332H2.85172V14.8995L1.4069 16.103L0 14.8995V1.67883L1.4069 0.475384ZM5.63103 14.1444H11.5862L12.5828 15.4133L11.5207 16.7547H5.63103L4.66897 15.5168L5.63103 14.1444ZM5.83793 0.165039H11.5172L12.5793 1.50297L11.5172 2.77538H5.9069L4.77241 1.5409L5.83793 0.165039ZM37.4897 2.7409L38.7621 4.11332L37.4897 5.48918H18.2586L17.0207 4.11332L18.2586 2.7409H37.4897ZM15.9897 8.44435L17.1897 7.41332L18.3931 8.44435V9.95814C18.3931 12.4995 19.0793 14.5926 22.1379 14.5926H22.7552C25.5034 14.5926 27.0138 12.7375 27.0138 9.85125V8.40987L28.1828 7.37883L29.3862 8.37538V9.95469C29.3862 12.5306 30.1414 14.4547 33.0966 14.4547H33.6103C36.4966 14.4547 37.0103 12.2547 37.0448 9.85125V8.30642L38.2138 7.34435L39.4483 8.3409V9.88573C39.4138 13.2168 38.5207 17.0306 33.7138 17.0306H33.2C30.3483 17.0306 28.8034 15.7581 28.1862 14.1788C27.4655 15.7926 25.5414 17.203 22.931 17.203H22.3103C17.3655 17.203 16.0276 14.2168 15.9931 10.0237V8.44435H15.9897ZM25.8138 33.3064L25.1276 31.4512L26.9138 30.9375L33.2 33.7857V27.9133L34.4724 26.8478L35.7759 27.9133V35.0237L38.1103 36.0892L38.7621 37.8064L36.9414 38.4581L25.8138 33.3064ZM37.0103 20.7685L38.7276 21.5581L38.1793 23.3099L22.7207 30.4892L20.8655 29.7685L21.6207 27.9823L37.0103 20.7685ZM14.7069 30.5581L16.2172 31.7961C16.0793 36.1581 12.3345 38.4581 7.9069 38.4581H7.45862C5.25862 38.4581 2.68621 37.634 1.03793 36.0547L1.21034 34.303L2.82414 34.0961C4.02759 35.1271 5.71034 35.8478 7.28966 35.8478H7.77241C10.7621 35.8478 13.0621 34.6133 13.3034 31.6926L14.7069 30.5581ZM13.2966 27.7064C13.1586 24.6823 10.8931 23.4823 7.76552 23.4823H7.28276C5.42759 23.4823 4.02069 24.203 2.81724 25.234L1.20345 25.0271L1.03103 23.2754C2.67931 21.6616 4.97931 20.9064 7.38621 20.9064H7.86552C12.331 20.9064 16.0759 23.1754 16.2103 27.603L14.7 28.8064L13.2966 27.7064Z" fill="#1B1F21"/>
</svg>
