<svg width="60" height="40" viewBox="0 0 60 40" fill="none" xmlns="http://www.w3.org/2000/svg">
<path d="M4.80478 4.993H1.29443C1.37374 5.67576 1.8496 6.17921 2.5496 6.17921C2.97374 6.17921 3.37029 6.01024 3.59788 5.66542L4.71512 5.69645C4.31857 6.57576 3.49788 7.04128 2.5496 7.04128C1.22546 7.04128 0.246155 6.05162 0.246155 4.68955C0.246155 3.32404 1.20477 2.34473 2.52201 2.34473C3.71857 2.34473 4.80478 3.14473 4.80478 4.98611V4.993ZM1.29443 4.27231H3.69788C3.6496 3.6999 3.18408 3.20335 2.53236 3.20335C1.86684 3.20335 1.41167 3.63783 1.29443 4.27231Z" fill="#1B1F21"/>
<path d="M8.23582 3.66886C7.89788 3.34128 7.40478 3.18611 7.0703 3.18611C6.68409 3.18611 6.48754 3.393 6.48754 3.5999C6.48754 3.84817 6.59788 3.96542 6.90133 4.07576L7.67374 4.34128C8.50478 4.62749 8.84961 5.08266 8.84961 5.63783C8.84961 6.35162 8.30478 7.04128 7.18754 7.04128C6.4565 7.04128 5.73237 6.74473 5.30823 6.33783L5.89099 5.57576C6.22892 5.91024 6.74961 6.15852 7.16685 6.15852C7.5634 6.15852 7.81857 5.98955 7.81857 5.72404C7.81857 5.43783 7.68064 5.32059 7.18409 5.15162L6.44271 4.893C5.81858 4.67576 5.47374 4.21024 5.47374 3.65852C5.47374 3.0068 6.03582 2.34473 7.10478 2.34473C7.62892 2.34473 8.33237 2.55162 8.79443 2.98611L8.23582 3.66886Z" fill="#1B1F21"/>
<path d="M11.8428 6.17973C12.3565 6.17973 12.7531 5.93145 12.9807 5.528L13.8324 5.96249C13.4772 6.62456 12.6945 7.0418 11.8462 7.0418C10.5221 7.0418 9.48413 6.06249 9.48413 4.69697C9.48413 3.32111 10.5221 2.3418 11.8462 2.3418C12.6979 2.3418 13.4772 2.75559 13.8324 3.42111L12.9807 3.85559C12.7531 3.44869 12.3565 3.20387 11.8428 3.20387C11.0324 3.20387 10.4772 3.84525 10.4772 4.69697C10.4772 5.54869 11.0324 6.17973 11.8428 6.17973Z" fill="#1B1F21"/>
<path d="M14.6393 5.29984V2.46191H15.6289V5.17226C15.6289 5.87571 16.0945 6.1895 16.6772 6.1895C17.26 6.1895 17.7255 5.87226 17.7255 5.17226V2.46191H18.7048V5.29984C18.7048 6.23778 17.9634 7.04122 16.6772 7.04122C15.391 7.04122 14.6393 6.23778 14.6393 5.29984Z" fill="#1B1F21"/>
<path d="M24.1427 4.993H20.6324C20.7117 5.67576 21.1876 6.17921 21.8876 6.17921C22.3117 6.17921 22.7082 6.01024 22.9358 5.66542L24.0531 5.69645C23.6565 6.57576 22.8358 7.04128 21.8876 7.04128C20.5634 7.04128 19.5841 6.05162 19.5841 4.68955C19.5841 3.32404 20.5427 2.34473 21.86 2.34473C23.0565 2.34473 24.1427 3.14473 24.1427 4.98611V4.993ZM20.6324 4.27231H23.0358C22.9876 3.6999 22.522 3.20335 21.8703 3.20335C21.2048 3.20335 20.7496 3.63783 20.6324 4.27231Z" fill="#1B1F21"/>
<path d="M26.0393 6.92069H25.06V0H26.0393V6.92069Z" fill="#1B1F21"/>
<path d="M29.8462 3.92404C29.8462 3.44817 29.491 3.20335 28.9152 3.20335C28.4324 3.20335 27.9945 3.41024 27.66 3.67921L27.1945 2.94817C27.5703 2.62059 28.2014 2.34473 28.9841 2.34473C30.16 2.34473 30.8324 2.99645 30.8324 3.94817V6.92404H29.8427V6.45852C29.5841 6.87231 29.0324 7.04128 28.5669 7.04128C27.5496 7.04128 26.9565 6.45852 26.9565 5.63783C26.9565 4.76886 27.5703 4.27231 28.5669 4.27231H29.5255C29.7531 4.27231 29.8427 4.17231 29.8427 3.99645V3.92404H29.8462ZM29.8462 5.28955V4.90335C29.7565 4.97231 29.5979 5.00335 29.3703 5.00335H28.7772C28.2531 5.00335 27.9876 5.23093 27.9876 5.6068C27.9876 5.95162 28.2462 6.26886 28.7772 6.26886C29.3324 6.26886 29.8462 5.98266 29.8462 5.28955Z" fill="#1B1F21"/>
<path d="M1.52203 17.3728H0.542725V10.4521H1.52203V13.5763C1.75996 13.1315 2.38065 12.7935 3.03583 12.7935C4.33238 12.7935 5.27031 13.7728 5.27031 15.1384C5.27031 16.5039 4.31169 17.4901 3.01514 17.4901C2.37376 17.4901 1.77031 17.1728 1.52203 16.728V17.3728ZM1.491 15.1384C1.491 15.9901 2.05307 16.6418 2.87376 16.6418C3.6841 16.6418 4.25651 15.9901 4.25651 15.1384C4.25651 14.2866 3.6841 13.6453 2.87376 13.6453C2.05307 13.6453 1.491 14.2901 1.491 15.1384Z" fill="#1B1F21"/>
<path d="M8.75994 13.7827H8.24616C7.61167 13.7827 7.19788 14.1482 7.19788 15.1586V17.3724H6.21857V12.9138H7.17719V13.6275C7.34615 13.1344 7.79098 12.8379 8.41167 12.8379C8.52202 12.8379 8.63926 12.8482 8.7565 12.8689V13.7827H8.75994Z" fill="#1B1F21"/>
<path d="M10.7566 17.3724H9.7669V13.7241H9.09448V12.9138H10.7566V17.3724ZM10.2014 10.6104C10.5876 10.6104 10.9048 10.9276 10.9048 11.3138C10.9048 11.7 10.5876 12.0069 10.2014 12.0069C9.81517 12.0069 9.50828 11.7 9.50828 11.3138C9.50828 10.9276 9.81517 10.6104 10.2014 10.6104Z" fill="#1B1F21"/>
<path d="M13.2565 11.1143V12.9143H14.3048V13.7246H13.2565V16.2246C13.2565 16.5315 13.4841 16.5901 13.7117 16.5901C14.0565 16.5901 14.3151 16.5487 14.3151 16.5487V17.3694C14.3151 17.3694 13.8289 17.4177 13.4634 17.4177C12.9289 17.4177 12.2669 17.3074 12.2669 16.4384V13.7246H11.5358V12.9143H12.2669V11.1143H13.2565Z" fill="#1B1F21"/>
<path d="M17.7462 14.3797C17.7462 13.9039 17.391 13.659 16.8151 13.659C16.3289 13.659 15.8944 13.8659 15.56 14.1349L15.0944 13.4039C15.4703 13.0763 16.1013 12.8004 16.8841 12.8004C18.06 12.8004 18.7324 13.4521 18.7324 14.4039V17.3797H17.7427V16.9142C17.4841 17.328 16.9324 17.497 16.4669 17.497C15.4496 17.497 14.8565 16.9142 14.8565 16.0935C14.8565 15.2246 15.4703 14.728 16.4669 14.728H17.4255C17.6531 14.728 17.7427 14.628 17.7427 14.4521V14.3797H17.7462ZM17.7462 15.7418V15.3556C17.6565 15.4246 17.4979 15.4556 17.2703 15.4556H16.6772C16.1531 15.4556 15.8875 15.6832 15.8875 16.059C15.8875 16.4039 16.1462 16.7211 16.6772 16.7211C17.2324 16.7211 17.7462 16.4349 17.7462 15.7418ZM16.6082 10.4521H17.8358L16.9841 12.1246H16.0358L16.6082 10.4521Z" fill="#1B1F21"/>
<path d="M20.891 13.1727C20.891 13.3003 20.891 13.3796 20.8806 13.4693C21.2565 13.0348 21.7703 12.7969 22.3358 12.7969C23.3841 12.7969 23.9979 13.4486 23.9979 14.4693V17.3762H23.0082V14.6072C23.0082 13.9727 22.622 13.6762 22.1289 13.6762C21.7048 13.6762 21.2875 13.8934 20.9117 14.3279V17.3727H19.9324V12.9141H20.891V13.1727Z" fill="#1B1F21"/>
<path d="M26.3772 17.3724H25.3876V13.7241H24.7151V12.9138H26.3772V17.3724ZM25.822 10.6104C26.2083 10.6104 26.5255 10.9276 26.5255 11.3138C26.5255 11.7 26.2083 12.0069 25.822 12.0069C25.4358 12.0069 25.1289 11.7 25.1289 11.3138C25.1324 10.9276 25.4358 10.6104 25.822 10.6104Z" fill="#1B1F21"/>
<path d="M29.6806 16.6309C30.1944 16.6309 30.591 16.3826 30.8186 15.9792L31.6703 16.4137C31.3151 17.0757 30.5324 17.493 29.6841 17.493C28.36 17.493 27.322 16.5137 27.322 15.1481C27.322 13.7723 28.36 12.793 29.6841 12.793C30.5358 12.793 31.3151 13.2068 31.6703 13.8723L30.8186 14.3068C30.591 13.8999 30.1944 13.655 29.6806 13.655C28.8703 13.655 28.3151 14.2964 28.3151 15.1481C28.3151 15.9999 28.8669 16.6309 29.6806 16.6309Z" fill="#1B1F21"/>
<path d="M35.0772 14.3791C35.0772 13.9033 34.722 13.6584 34.1462 13.6584C33.6634 13.6584 33.2255 13.8653 32.891 14.1343L32.4255 13.4033C32.8014 13.0757 33.4324 12.7998 34.2151 12.7998C35.391 12.7998 36.0634 13.4515 36.0634 14.4033V17.3791H35.0738V16.9136C34.8152 17.3274 34.2634 17.4964 33.7979 17.4964C32.7807 17.4964 32.1876 16.9136 32.1876 16.0929C32.1876 15.2239 32.8014 14.7274 33.7979 14.7274H34.7565C34.9841 14.7274 35.0738 14.6274 35.0738 14.4515V14.3791H35.0772ZM35.0772 15.7412V15.355C34.9876 15.4239 34.8289 15.455 34.6014 15.455H34.0083C33.4841 15.455 33.2186 15.6826 33.2186 16.0584C33.2186 16.4033 33.4772 16.7205 34.0083 16.7205C34.5634 16.7205 35.0772 16.4343 35.0772 15.7412Z" fill="#1B1F21"/>
<path d="M42.8289 16.7206C42.591 17.1654 41.9876 17.493 41.3358 17.493C40.0393 17.493 39.091 16.5034 39.091 15.1413C39.091 13.7758 40.022 12.7965 41.3151 12.7965C41.9772 12.7965 42.591 13.1344 42.8393 13.5792C42.8289 13.2723 42.8289 12.9068 42.8289 12.562V10.4551H43.8186V17.3758H42.8289V16.7206ZM40.1013 15.1378C40.1013 15.9896 40.6634 16.6413 41.4841 16.6413C42.2945 16.6413 42.8669 15.9896 42.8669 15.1378C42.8669 14.2861 42.2945 13.6447 41.4841 13.6447C40.6634 13.6447 40.1013 14.2896 40.1013 15.1378Z" fill="#1B1F21"/>
<path d="M49.3255 15.4452H45.8151C45.8944 16.1279 46.3703 16.6314 47.0703 16.6314C47.4944 16.6314 47.891 16.4624 48.1186 16.1176L49.2358 16.1486C48.8393 17.0279 48.0186 17.4934 47.0703 17.4934C45.7462 17.4934 44.7668 16.5038 44.7668 15.1417C44.7668 13.7762 45.7255 12.7969 47.0427 12.7969C48.2393 12.7969 49.3255 13.5969 49.3255 15.4383V15.4452ZM45.8151 14.7245H48.2186C48.1703 14.152 47.7048 13.6555 47.0531 13.6555C46.3875 13.6555 45.9324 14.09 45.8151 14.7245Z" fill="#1B1F21"/>
<path d="M3.07374 24.8313C3.07374 24.3554 2.71857 24.1106 2.14271 24.1106C1.6565 24.1106 1.22202 24.3175 0.887533 24.5864L0.422014 23.8554C0.797876 23.5278 1.42891 23.252 2.21167 23.252C3.38753 23.252 4.05995 23.9037 4.05995 24.8554V27.8313H3.07029V27.3657C2.81167 27.7795 2.25994 27.9485 1.79443 27.9485C0.777185 27.9485 0.184082 27.3657 0.184082 26.5451C0.184082 25.6761 0.797874 25.1795 1.79443 25.1795H2.75305C2.98063 25.1795 3.07029 25.0795 3.07029 24.9037V24.8313H3.07374ZM3.07374 26.1933V25.8071C2.98408 25.8761 2.82546 25.9071 2.59787 25.9071H2.00477C1.48063 25.9071 1.21512 26.1347 1.21512 26.5106C1.21512 26.8554 1.47374 27.1726 2.00477 27.1726C2.55994 27.1726 3.07374 26.8864 3.07374 26.1933Z" fill="#1B1F21"/>
<path d="M7.79791 24.2383H7.28411C6.64963 24.2383 6.23584 24.6038 6.23584 25.6142V27.828H5.25653V23.3659H6.21515V24.0797C6.38412 23.5866 6.82894 23.29 7.44963 23.29C7.55998 23.29 7.67722 23.3004 7.79446 23.3211V24.2383H7.79791Z" fill="#1B1F21"/>
<path d="M9.86687 21.5659V23.3659H10.9151V24.1763H9.86687V26.6763C9.86687 26.9832 10.0945 27.0418 10.322 27.0418C10.6669 27.0418 10.9255 27.0004 10.9255 27.0004V27.8211C10.9255 27.8211 10.4393 27.8694 10.0738 27.8694C9.53929 27.8694 8.87722 27.7591 8.87722 26.8901V24.1728H8.14618V23.3625H8.87722V21.5625H9.86687V21.5659Z" fill="#1B1F21"/>
<path d="M16.0841 25.8963H12.5738C12.6531 26.5791 13.129 27.0825 13.829 27.0825C14.2531 27.0825 14.6497 26.9136 14.8772 26.5687L15.9945 26.5998C15.5979 27.4791 14.7772 27.9446 13.829 27.9446C12.5048 27.9446 11.5255 26.9549 11.5255 25.5929C11.5255 24.2274 12.4841 23.248 13.8014 23.248C14.9979 23.248 16.0841 24.048 16.0841 25.8894V25.8963ZM12.5738 25.1756H14.9772C14.929 24.6032 14.4634 24.1067 13.8117 24.1067C13.1497 24.1067 12.6945 24.5446 12.5738 25.1756Z" fill="#1B1F21"/>
<path d="M19.5152 24.5722C19.1772 24.2446 18.6841 24.0894 18.3497 24.0894C17.9634 24.0894 17.7669 24.2963 17.7669 24.5032C17.7669 24.7515 17.8772 24.8687 18.1807 24.9791L18.9531 25.2446C19.7841 25.5308 20.129 25.986 20.129 26.5412C20.129 27.2549 19.5841 27.9446 18.4669 27.9446C17.7359 27.9446 17.0117 27.648 16.5876 27.2412L17.1703 26.4791C17.5083 26.8136 18.029 27.0618 18.4462 27.0618C18.8428 27.0618 19.0979 26.8929 19.0979 26.6274C19.0979 26.3412 18.96 26.2239 18.4634 26.0549L17.7221 25.7963C17.0979 25.5791 16.7531 25.1136 16.7531 24.5618C16.7531 23.9101 17.3152 23.248 18.3841 23.248C18.9083 23.248 19.6117 23.4549 20.0738 23.8894L19.5152 24.5722Z" fill="#1B1F21"/>
<path d="M24.8531 27.083C25.3669 27.083 25.7634 26.8348 25.991 26.4313L26.8427 26.8658C26.4875 27.5279 25.7048 27.9451 24.8565 27.9451C23.5324 27.9451 22.4944 26.9658 22.4944 25.6003C22.4944 24.2244 23.5324 23.2451 24.8565 23.2451C25.7082 23.2451 26.4875 23.6589 26.8427 24.3244L25.991 24.7589C25.7634 24.352 25.3669 24.1072 24.8531 24.1072C24.0427 24.1072 23.4876 24.7486 23.4876 25.6003C23.491 26.452 24.0427 27.083 24.8531 27.083Z" fill="#1B1F21"/>
<path d="M30.2634 24.2383H29.7496C29.1152 24.2383 28.7014 24.6038 28.7014 25.6142V27.828H27.722V23.3659H28.6807V24.0797C28.8496 23.5866 29.2945 23.29 29.9151 23.29C30.0255 23.29 30.1427 23.3004 30.26 23.3211V24.2383H30.2634Z" fill="#1B1F21"/>
<path d="M35.2359 25.8963H31.7255C31.8048 26.5791 32.2807 27.0825 32.9807 27.0825C33.4048 27.0825 33.8014 26.9136 34.029 26.5687L35.1462 26.5998C34.7497 27.4791 33.929 27.9446 32.9807 27.9446C31.6566 27.9446 30.6772 26.9549 30.6772 25.5929C30.6772 24.2274 31.6359 23.248 32.9531 23.248C34.1497 23.248 35.2359 24.048 35.2359 25.8894V25.8963ZM31.7255 25.1756H34.129C34.0807 24.6032 33.6152 24.1067 32.9634 24.1067C32.2979 24.1067 31.8462 24.5446 31.7255 25.1756Z" fill="#1B1F21"/>
<path d="M38.6565 24.8313C38.6565 24.3554 38.3013 24.1106 37.7255 24.1106C37.2427 24.1106 36.8048 24.3175 36.4703 24.5864L36.0048 23.8554C36.3806 23.5278 37.0117 23.252 37.7944 23.252C38.9703 23.252 39.6427 23.9037 39.6427 24.8554V27.8313H38.6531V27.3657C38.3944 27.7795 37.8427 27.9485 37.3772 27.9485C36.3599 27.9485 35.7668 27.3657 35.7668 26.5451C35.7668 25.6761 36.3806 25.1795 37.3772 25.1795H38.3358C38.5634 25.1795 38.6531 25.0795 38.6531 24.9037V24.8313H38.6565ZM38.6565 26.1933V25.8071C38.5668 25.8761 38.4082 25.9071 38.1806 25.9071H37.5875C37.0634 25.9071 36.7979 26.1347 36.7979 26.5106C36.7979 26.8554 37.0565 27.1726 37.5875 27.1726C38.1427 27.1726 38.6565 26.8864 38.6565 26.1933Z" fill="#1B1F21"/>
<path d="M42.0978 21.5659V23.3659H43.146V24.1763H42.0978V26.6763C42.0978 26.9832 42.3254 27.0418 42.5529 27.0418C42.8978 27.0418 43.1564 27.0004 43.1564 27.0004V27.8211C43.1564 27.8211 42.6702 27.8694 42.3047 27.8694C41.7702 27.8694 41.1081 27.7591 41.1081 26.8901V24.1728H40.3771V23.3625H41.1081V21.5625H42.0978V21.5659Z" fill="#1B1F21"/>
<path d="M45.2427 27.828H44.253V24.1763H43.5806V23.3659H45.2427V27.828ZM44.6875 21.0625C45.0737 21.0625 45.391 21.3797 45.391 21.7659C45.391 22.1522 45.0737 22.4591 44.6875 22.4591C44.3013 22.4591 43.9944 22.1522 43.9944 21.7659C43.9944 21.3797 44.3013 21.0625 44.6875 21.0625Z" fill="#1B1F21"/>
<path d="M48.2772 26.8859L49.4738 23.3652H50.5221L48.8807 27.8239H47.6359L46.0531 23.3652H47.1496L48.2772 26.8859Z" fill="#1B1F21"/>
<path d="M53.7255 24.8313C53.7255 24.3554 53.3703 24.1106 52.7944 24.1106C52.3082 24.1106 51.8737 24.3175 51.5393 24.5864L51.0737 23.8554C51.4496 23.5278 52.0806 23.252 52.8634 23.252C54.0393 23.252 54.7117 23.9037 54.7117 24.8554V27.8313H53.722V27.3657C53.4634 27.7795 52.9117 27.9485 52.4462 27.9485C51.4289 27.9485 50.8358 27.3657 50.8358 26.5451C50.8358 25.6761 51.4496 25.1795 52.4462 25.1795H53.4048C53.6324 25.1795 53.722 25.0795 53.722 24.9037V24.8313H53.7255ZM53.7255 26.1933V25.8071C53.6358 25.8761 53.4772 25.9071 53.2496 25.9071H52.6565C52.1324 25.9071 51.8668 26.1347 51.8668 26.5106C51.8668 26.8554 52.1255 27.1726 52.6565 27.1726C53.2117 27.1726 53.7255 26.8864 53.7255 26.1933Z" fill="#1B1F21"/>
<path d="M58.4496 24.5722C58.1117 24.2446 57.6186 24.0894 57.2841 24.0894C56.8979 24.0894 56.7013 24.2963 56.7013 24.5032C56.7013 24.7515 56.8117 24.8687 57.1151 24.9791L57.8876 25.2446C58.7186 25.5308 59.0634 25.986 59.0634 26.5412C59.0634 27.2549 58.5186 27.9446 57.4013 27.9446C56.6703 27.9446 55.9462 27.648 55.522 27.2412L56.1048 26.4791C56.4427 26.8136 56.9634 27.0618 57.3807 27.0618C57.7772 27.0618 58.0324 26.8929 58.0324 26.6274C58.0324 26.3412 57.8944 26.2239 57.3979 26.0549L56.6565 25.7963C56.0324 25.5791 55.6876 25.1136 55.6876 24.5618C55.6876 23.9101 56.2496 23.248 57.3186 23.248C57.8427 23.248 58.5462 23.4549 59.0082 23.8894L58.4496 24.5722Z" fill="#1B1F21"/>
<path d="M1.88756 38.2789H1.691L0.0979004 33.8203H1.2048L2.32204 37.3307L3.48756 33.8203H4.54618L2.65652 39.0031C2.41859 39.6445 2.04273 40.0031 1.25307 40.0031H0.559968V39.1927H1.1048C1.45997 39.1927 1.62893 39.0755 1.75652 38.6893L1.88756 38.2789Z" fill="#1B1F21"/>
<path d="M8.47032 32.021V33.821H9.5186V34.6314H8.47032V37.1314C8.47032 37.4383 8.69791 37.4969 8.92549 37.4969C9.27032 37.4969 9.52894 37.4555 9.52894 37.4555V38.2762C9.52894 38.2762 9.04274 38.3245 8.67722 38.3245C8.14274 38.3245 7.48067 38.2141 7.48067 37.3452V34.6279H6.74963V33.8176H7.48067V32.0176H8.47032V32.021Z" fill="#1B1F21"/>
<path d="M14.691 36.3485H11.1807C11.26 37.0312 11.7358 37.5347 12.4358 37.5347C12.86 37.5347 13.2565 37.3657 13.4841 37.0209L14.6013 37.0519C14.2048 37.9312 13.3841 38.3967 12.4358 38.3967C11.1117 38.3967 10.1324 37.4071 10.1324 36.045C10.1324 34.6795 11.091 33.7002 12.4082 33.7002C13.6048 33.7002 14.691 34.5002 14.691 36.3416V36.3485ZM11.1807 35.6278H13.5841C13.5358 35.0554 13.0703 34.5588 12.4186 34.5588C11.7531 34.5588 11.2979 34.9967 11.1807 35.6278Z" fill="#1B1F21"/>
<path d="M17.6358 37.5381C18.1496 37.5381 18.5462 37.2898 18.7738 36.8864L19.6255 37.3209C19.2703 37.983 18.4876 38.4002 17.6393 38.4002C16.3151 38.4002 15.2772 37.4209 15.2772 36.0554C15.2772 34.6795 16.3151 33.7002 17.6393 33.7002C18.491 33.7002 19.2703 34.114 19.6255 34.7795L18.7738 35.214C18.5462 34.8071 18.1496 34.5623 17.6358 34.5623C16.8255 34.5623 16.2703 35.2036 16.2703 36.0554C16.2738 36.9036 16.8255 37.5381 17.6358 37.5381Z" fill="#1B1F21"/>
<path d="M21.4634 34.0761C21.4634 34.2036 21.4634 34.283 21.4531 34.3726C21.829 33.9381 22.3428 33.7002 22.9083 33.7002C23.9565 33.7002 24.5703 34.3519 24.5703 35.3726V38.2795H23.5807V35.5105C23.5807 34.8761 23.1945 34.5795 22.7014 34.5795C22.2772 34.5795 21.86 34.7967 21.4841 35.2312V38.2761H20.5048V33.8174H21.4634V34.0761Z" fill="#1B1F21"/>
<path d="M27.8321 33.7002C29.1459 33.7002 30.2149 34.6795 30.2149 36.045C30.2149 37.4105 29.1459 38.3967 27.8321 38.3967C26.5183 38.3967 25.4597 37.4071 25.4597 36.045C25.4563 34.6795 26.5149 33.7002 27.8321 33.7002ZM27.8321 34.5588C27.0218 34.5588 26.4563 35.1933 26.4563 36.0416C26.4563 36.8933 27.0183 37.5347 27.8321 37.5347C28.6425 37.5347 29.208 36.8933 29.208 36.0416C29.2046 35.1933 28.6425 34.5588 27.8321 34.5588Z" fill="#1B1F21"/>
<path d="M32.16 38.2796H31.1807V31.3555H32.16V38.2796Z" fill="#1B1F21"/>
<path d="M35.5048 33.7002C36.8186 33.7002 37.8876 34.6795 37.8876 36.045C37.8876 37.4105 36.8186 38.3967 35.5048 38.3967C34.191 38.3967 33.1324 37.4071 33.1324 36.045C33.1289 34.6795 34.1876 33.7002 35.5048 33.7002ZM35.5048 34.5588C34.6945 34.5588 34.1289 35.1933 34.1289 36.0416C34.1289 36.8933 34.691 37.5347 35.5048 37.5347C36.3152 37.5347 36.8807 36.8933 36.8807 36.0416C36.8772 35.1933 36.3152 34.5588 35.5048 34.5588Z" fill="#1B1F21"/>
<path d="M43.2462 33.817V38.6308C43.2462 39.3239 42.9013 39.9963 41.8427 39.9963H39.9738V39.1859H41.6944C41.96 39.1859 42.2565 39.117 42.2565 38.7101V37.6135C42.0186 38.048 41.4151 38.3756 40.7634 38.3756C39.4772 38.3756 38.5289 37.4066 38.5289 36.0411C38.5289 34.6653 39.46 33.6963 40.7531 33.6963C41.4048 33.6963 42.0186 34.0342 42.2669 34.479C42.2669 34.379 42.2565 34.2721 42.2565 34.1342V33.817H43.2462ZM40.9117 37.5377C41.7324 37.5377 42.2945 36.8963 42.2945 36.0446C42.2945 35.1825 41.7324 34.5411 40.9117 34.5411C40.1013 34.5411 39.5358 35.1825 39.5358 36.0446C39.5358 36.8928 40.1013 37.5377 40.9117 37.5377Z" fill="#1B1F21"/>
<path d="M45.6772 38.2796H44.6979V34.6313H44.0151V33.821H45.6772V38.2796ZM44.7875 31.3555H46.0151L45.1634 33.0279H44.2151L44.7875 31.3555Z" fill="#1B1F21"/>
<path d="M49.4531 35.2824C49.4531 34.8066 49.0979 34.5617 48.522 34.5617C48.0358 34.5617 47.6013 34.7686 47.2669 35.0376L46.8013 34.3066C47.1772 33.979 47.8082 33.7031 48.591 33.7031C49.7669 33.7031 50.4393 34.3548 50.4393 35.3066V38.2824H49.4496V37.8169C49.191 38.2307 48.6393 38.3997 48.1738 38.3997C47.1565 38.3997 46.5634 37.8169 46.5634 36.9962C46.5634 36.1273 47.1772 35.6307 48.1738 35.6307H49.1324C49.36 35.6307 49.4496 35.5307 49.4496 35.3548V35.2824H49.4531ZM49.4531 36.648V36.2617C49.3634 36.3307 49.2048 36.3617 48.9772 36.3617H48.3841C47.86 36.3617 47.5944 36.5893 47.5944 36.9652C47.5944 37.31 47.8531 37.6273 48.3841 37.6273C48.9393 37.6238 49.4531 37.3376 49.4531 36.648Z" fill="#1B1F21"/>
</svg>
